<?xml version="1.0" encoding="UTF-8" standalone="no"?>
<svg width="287px" height="127px" viewBox="0 0 287 127" version="1.1" xmlns="http://www.w3.org/2000/svg" xmlns:xlink="http://www.w3.org/1999/xlink">
    <!-- Generator: Sketch 46.2 (44496) - http://www.bohemiancoding.com/sketch -->
    <title>Group 15</title>
    <desc>Created with Sketch.</desc>
    <defs>
        <polygon id="path-1" points="0.27544262 119.336207 124.737645 119.336207 124.737645 0.298210446 0.27544262 0.298210446"></polygon>
        <polygon id="path-3" points="111.439122 49.5347074 0.256418885 49.5347074 0.256418885 0.200024643 111.439122 0.200024643"></polygon>
    </defs>
    <g id="MAH" stroke="none" stroke-width="1" fill="none" fill-rule="evenodd">
        <g id="404" transform="translate(-545.000000, -193.000000)">
            <g id="Group-15" transform="translate(545.000000, 193.000000)">
                <g id="Group-14">
                    <path d="M262.925664,89.8982638 C262.925664,89.8982638 257.326693,76.2786086 242.449363,76.2786086 C227.572034,76.2786086 223.075127,89.8982638 223.075127,89.8982638 L131.277604,89.8982638 C131.277604,89.8982638 123.56315,75.2899793 110.192815,75.2899793 C96.8235739,75.2899793 90.652229,89.8982638 90.652229,89.8982638 L59.7965994,89.8982638 C59.7965994,89.8982638 55.1705532,72.6043672 69.0530694,64.9241517 C82.9355856,57.245031 109.165169,56.2268414 109.165169,56.2268414 L178.776932,55.1363931 L232.070035,55.1363931 L277.252252,62.2789736 C280.138243,63.2058676 289.18155,71.4080743 286.375461,89.8982638 L262.925664,89.8982638 Z" id="Fill-23" fill="#E40019"></path>
                    <path d="M102.934179,94.2775741 C107.081971,94.2775741 110.454924,97.6518328 110.454924,101.800134 C110.454924,105.949531 107.081971,109.32379 102.934179,109.32379 C98.7896709,109.32379 95.415623,105.949531 95.415623,101.800134 C95.415623,97.6518328 98.7896709,94.2775741 102.934179,94.2775741 M102.934179,116.371195 C110.966011,116.371195 117.500698,109.833979 117.500698,101.800134 C117.500698,93.7673845 110.966011,87.2312638 102.934179,87.2312638 C94.9034418,87.2312638 88.3698493,93.7673845 88.3698493,101.800134 C88.3698493,109.833979 94.9034418,116.371195 102.934179,116.371195" id="Fill-1" fill="#231F20"></path>
                    <g id="Group-5" transform="translate(47.473518, 7.132802)">
                        <mask id="mask-2" fill="white">
                            <use xlink:href="#path-1"></use>
                        </mask>
                        <g id="Clip-4"></g>
                        <path d="M78.2790961,48.857119 L71.3898222,48.857119 L78.2790961,43.6128948 L78.2790961,48.857119 Z M18.2783903,72.53605 C18.2783903,73.0812741 17.8351567,73.5246793 17.2912378,73.5246793 L8.70235432,73.5246793 C9.01207069,72.8447914 9.37103524,72.1835155 9.78034238,71.5485155 L17.2912378,71.5485155 C17.8351567,71.5485155 18.2783903,71.9919207 18.2783903,72.53605 L18.2783903,72.53605 Z M30.9603453,97.4094379 L24.4103366,97.4094379 C21.0691208,97.4094379 17.8526671,96.1854207 15.355237,93.9629207 L12.4922758,91.4196362 C12.4047235,91.3429983 12.3237375,91.2608862 12.238374,91.1820586 L31.054464,91.1820586 C30.8924922,92.3217741 30.8038455,93.484481 30.8038455,94.6679897 C30.8038455,95.5953086 30.8596601,96.5094897 30.9603453,97.4094379 L30.9603453,97.4094379 Z M55.4607702,77.0489293 C65.1725124,77.0489293 73.0730157,84.9524897 73.0730157,94.6679897 C73.0730157,104.38349 65.1725124,112.28705 55.4607702,112.28705 C45.7512169,112.28705 37.8485248,104.38349 37.8485248,94.6679897 C37.8485248,84.9524897 45.7512169,77.0489293 55.4607702,77.0489293 L55.4607702,77.0489293 Z M124.737645,52.3824638 C124.737645,50.4358603 123.160609,48.857119 121.215853,48.857119 L85.3237754,48.857119 L85.3237754,38.252619 L95.1449579,30.7771362 C97.0765812,29.3067828 99.4722318,28.4977052 101.896337,28.4977052 L121.215853,28.4977052 C123.160609,28.4977052 124.737645,26.9211534 124.737645,24.97455 C124.737645,23.0279466 123.160609,21.4492052 121.215853,21.4492052 L101.896337,21.4492052 C97.940066,21.4492052 94.0275713,22.7706621 90.8789707,25.1694293 L59.487083,49.0618517 L58.899388,49.1647655 L46.6092297,19.9044034 C43.1673288,11.7118086 36.9543966,4.8965069 29.1151799,0.71317069 C27.3969655,-0.202105172 25.2639718,0.447127586 24.3501444,2.16491207 C23.4352225,3.88379138 24.0831098,6.01651552 25.8002298,6.93288621 C32.2145324,10.3553172 37.2980395,15.9312741 40.1128469,22.6349034 L51.78795,50.4271017 L18.0419991,56.4179983 C13.1138973,57.289481 8.72533681,60.2017224 6.00245937,64.4113345 L3.87931538,67.6980069 C1.52087451,71.3394034 0.27544262,75.558869 0.27544262,79.8987655 C0.27544262,83.0858086 0.937557111,86.1808862 2.24537003,89.1040759 C3.55208855,92.0119379 5.42351959,94.5628862 7.81150937,96.6890414 L10.6744705,99.2334207 C14.4622032,102.602205 19.3410567,104.455748 24.4081478,104.455748 L32.8339651,104.455748 C36.6271698,113.201231 45.339721,119.336645 55.4607702,119.336645 C65.5818195,119.336645 74.2943707,113.201231 78.0875754,104.455748 L121.215853,104.455748 C123.160609,104.455748 124.737645,102.879197 124.737645,100.932593 C124.737645,98.9859897 123.160609,97.4094379 121.215853,97.4094379 L79.9622896,97.4094379 C80.0640692,96.5094897 80.1198838,95.5953086 80.1198838,94.6679897 C80.1198838,93.484481 80.0290483,92.3217741 79.8692653,91.1820586 L121.215853,91.1820586 C123.160609,91.1820586 124.737645,89.6055069 124.737645,87.6589034 C124.737645,85.7123 123.160609,84.1357483 121.215853,84.1357483 L77.7537821,84.1357483 C73.7953224,75.7887828 65.2928968,70.0015241 55.4607702,70.0015241 C45.6308324,70.0015241 37.1284069,75.7887828 33.1699472,84.1357483 L7.91766657,84.1357483 C7.58496772,82.975231 7.39016379,81.7840586 7.33763239,80.5720845 L17.2912378,80.5720845 C21.7213857,80.5720845 25.3252585,76.9679121 25.3252585,72.53605 C25.3252585,68.1052828 21.7213857,64.5000155 17.2912378,64.5000155 L15.9856137,64.5000155 C17.0066928,63.9526017 18.1142297,63.5628431 19.2710149,63.3581103 L61.2512624,55.905619 L121.215853,55.905619 C123.160609,55.905619 124.737645,54.3279724 124.737645,52.3824638 L124.737645,52.3824638 Z" id="Fill-3" fill="#231F20" mask="url(#mask-2)"></path>
                    </g>
                    <path d="M150.459554,69.303681 C148.514797,69.303681 146.937761,70.8802328 146.937761,72.8268362 C146.937761,74.7734397 148.514797,76.3499914 150.459554,76.3499914 L159.852824,76.3499914 C161.79758,76.3499914 163.376805,74.7734397 163.376805,72.8268362 C163.376805,70.8802328 161.79758,69.303681 159.852824,69.303681 L150.459554,69.303681 Z" id="Fill-6" fill="#231F20"></path>
                    <path d="M34.2944663,64.3957879 C25.229517,64.3957879 17.8576109,57.0177448 17.8576109,47.9503828 C17.8576109,40.3949776 23.0363311,33.8676155 30.1915453,32.0294 C30.8273941,31.8651759 33.6006141,31.5071672 34.2944663,31.5071672 C39.217096,31.5071672 43.839859,33.6880638 46.9775156,37.4893052 C47.6757454,38.3334172 48.6825972,38.7702534 49.6971098,38.7702534 C50.4861752,38.7702534 51.281807,38.5064 51.9373551,37.9633655 C53.4377831,36.7240207 53.6500975,34.5048052 52.4112321,33.0037966 C48.0784862,27.7519086 41.7604912,24.6765379 34.9905073,24.4772793 C35.3779264,16.8342879 41.7156206,10.7350034 49.4508689,10.7350034 C57.4356414,10.7350034 63.9331186,17.2349948 63.9331186,25.2228569 C63.9331186,27.9106586 63.1900182,30.5360552 61.7848033,32.8143914 C61.177409,33.7997362 61.0931399,35.020469 61.5593561,36.0802621 C62.0233834,37.14115 62.9787982,37.9042448 64.1169785,38.1243052 C67.7865155,38.8315638 70.4502951,42.0645897 70.4502951,45.8110897 C70.4502951,50.1279948 66.9394467,53.6423914 62.6220225,53.6423914 C60.1935397,53.6423914 57.9423505,52.5388052 56.4441112,50.6140983 C55.6167417,49.5510207 54.2520198,49.053969 52.9332628,49.33315 C51.6145059,49.6112362 50.5704443,50.6217621 50.2465007,51.9311759 C48.4232235,59.2709 41.8644596,64.3957879 34.2944663,64.3957879 M55.1844521,58.7048741 C57.4104701,59.9923914 59.9604317,60.6887017 62.6220225,60.6887017 C70.8223925,60.6887017 77.49388,54.0146328 77.49388,45.8110897 C77.49388,40.2187103 74.3682619,35.2273914 69.6437193,32.6917707 C70.5225258,30.3138052 70.9777979,27.7869431 70.9777979,25.2228569 C70.9777979,13.3483569 61.320776,3.68759828 49.4508689,3.68759828 C37.5809619,3.68759828 27.9250343,13.3483569 27.9250343,25.2228569 L27.9250343,25.3421931 C17.9681457,28.1460466 10.8107428,37.338219 10.8107428,47.9525724 C10.8107428,60.9054776 21.3465712,71.4453828 34.2944663,71.4453828 C43.263108,71.4431931 51.2380308,66.4058914 55.1844521,58.7048741" id="Fill-8" fill="#231F20"></path>
                    <path d="M7.04402266,11.5515259 C7.04402266,9.0684569 9.06429266,7.04740517 11.5464012,7.04740517 C14.0274153,7.04740517 16.0476853,9.0684569 16.0476853,11.5515259 C16.0476853,14.0324052 14.0274153,16.0534569 11.5464012,16.0534569 C9.06429266,16.0534569 7.04402266,14.0324052 7.04402266,11.5515259 M23.0912702,11.5515259 C23.0912702,5.18072414 17.9125499,0 11.5464012,0 C5.17915804,0 0.000437761647,5.18072414 0.000437761647,11.5515259 C0.000437761647,17.9190431 5.17915804,23.1008621 11.5464012,23.1008621 C17.9125499,23.1008621 23.0912702,17.9190431 23.0912702,11.5515259" id="Fill-10" fill="#231F20"></path>
                    <path d="M235.882829,94.2775741 C240.027338,94.2775741 243.401385,97.6518328 243.401385,101.800134 C243.401385,105.949531 240.027338,109.32379 235.882829,109.32379 C231.735038,109.32379 228.362084,105.949531 228.362084,101.800134 C228.362084,97.6518328 231.735038,94.2775741 235.882829,94.2775741 M235.882829,116.371195 C243.913567,116.371195 250.447159,109.833979 250.447159,101.800134 C250.447159,93.7673845 243.913567,87.2312638 235.882829,87.2312638 C227.850997,87.2312638 221.31631,93.7673845 221.31631,101.800134 C221.31631,109.833979 227.850997,116.371195 235.882829,116.371195" id="Fill-12" fill="#231F20"></path>
                    <path d="M277.500282,79.5501724 C276.974968,79.6946897 276.429955,79.3848534 276.285493,78.8593362 C276.141032,78.3349138 276.450748,77.7896897 276.974968,77.6440776 L277.412729,77.5236466 L275.540204,70.7291466 L275.102442,70.8495776 C270.832077,72.0265172 268.314948,76.460569 269.492527,80.7325862 C270.669011,85.0046034 275.101348,87.5216121 279.371713,86.3435776 L279.809474,86.2231466 L277.936949,79.4297414 L277.500282,79.5501724 Z" id="Fill-14" fill="#231F20"></path>
                    <path d="M213.064284,55.9898112 L213.064284,50.7455871 L219.953558,55.9898112 L213.064284,55.9898112 Z M273.301381,63.5506905 L239.555431,57.559794 L232.443993,56.2974578 L231.856298,56.194544 L200.46441,32.3021216 C197.315809,29.9033543 193.403314,28.5818974 189.447044,28.5818974 L170.127528,28.5818974 C168.182772,28.5818974 166.605735,30.1606388 166.605735,32.1072422 C166.605735,34.0538457 168.182772,35.6303974 170.127528,35.6303974 L189.447044,35.6303974 C191.871149,35.6303974 194.266799,36.439475 196.198423,37.9098284 L206.019605,45.3853112 L206.019605,55.9898112 L170.127528,55.9898112 C168.182772,55.9898112 166.605735,57.5685526 166.605735,59.515156 C166.605735,61.4606647 168.182772,63.0383112 170.127528,63.0383112 L230.092118,63.0383112 L272.072366,70.4908026 C272.915057,70.6396991 273.730388,70.8893198 274.505226,71.2243371 L274.505226,63.8298716 C274.105768,63.7302422 273.7085,63.6229491 273.301381,63.5506905 L273.301381,63.5506905 Z" id="Fill-16" fill="#231F20"></path>
                    <g id="Group-20" transform="translate(166.349426, 76.934301)">
                        <mask id="mask-4" fill="white">
                            <use xlink:href="#path-3"></use>
                        </mask>
                        <g id="Clip-19"></g>
                        <path d="M69.5332939,42.4855505 C59.8204574,42.4855505 51.9210485,34.5819902 51.9210485,24.8664902 C51.9210485,15.1509902 59.8204574,7.24742982 69.5332939,7.24742982 C79.2428472,7.24742982 87.1455394,15.1509902 87.1455394,24.8664902 C87.1455394,34.5819902 79.2428472,42.4855505 69.5332939,42.4855505 M100.583728,27.6079384 L94.0337189,27.6079384 C94.1344041,26.7079902 94.1902187,25.7938091 94.1902187,24.8664902 C94.1902187,23.6829815 94.1015719,22.5202746 93.9396001,21.3805591 L111.439122,21.3805591 L111.439122,14.3342488 L91.824117,14.3342488 C87.8656573,5.98728326 79.3632317,0.200024643 69.5332939,0.200024643 C59.7011673,0.200024643 51.1987417,5.98728326 47.240282,14.3342488 L3.77821133,14.3342488 C1.83345522,14.3342488 0.256418885,15.9108005 0.256418885,17.857404 C0.256418885,19.8040074 1.83345522,21.3805591 3.77821133,21.3805591 L45.1247989,21.3805591 C44.9639215,22.5202746 44.8741803,23.6829815 44.8741803,24.8664902 C44.8741803,25.7938091 44.9299949,26.7079902 45.0317745,27.6079384 L3.77821133,27.6079384 C1.83345522,27.6079384 0.256418885,29.1844902 0.256418885,31.1310936 C0.256418885,33.0776971 1.83345522,34.6542488 3.77821133,34.6542488 L46.9064888,34.6542488 C50.6996935,43.3997315 59.4122446,49.5351453 69.5332939,49.5351453 C79.6543432,49.5351453 88.3668944,43.3997315 92.160099,34.6542488 L100.585916,34.6542488 C103.202637,34.6542488 105.764637,34.1517229 108.15591,33.2090764 L108.15591,25.2912833 C105.92442,26.7879126 103.298944,27.6079384 100.583728,27.6079384" id="Fill-18" fill="#231F20" mask="url(#mask-4)"></path>
                    </g>
                    <path d="M273.84333,110.922566 C273.255635,110.922566 272.661374,110.764911 272.124022,110.434273 C270.580912,109.482868 270.100468,107.459627 271.051505,105.914825 C285.027046,83.2299974 271.545082,69.7636181 270.963953,69.2030664 C269.667084,67.9451095 269.620025,65.8704112 270.86874,64.5642819 C272.117455,63.2581526 274.179312,63.2012216 275.491503,64.4438509 C275.673174,64.6157388 293.499923,81.9972216 276.641722,109.361342 C276.021195,110.368584 274.945395,110.922566 273.84333,110.922566" id="Fill-21" fill="#231F20"></path>
                </g>
            </g>
        </g>
    </g>
</svg>