<svg width="2374" height="744" viewBox="0 0 2374 744" fill="none" xmlns="http://www.w3.org/2000/svg">
<path d="M1369.94 152.738C1333.73 152.738 1298.56 162.025 1268.09 190.928C1261.72 196.98 1251.18 192.493 1251.18 183.728V61.1248C1251.18 27.8393 1224.15 0.814331 1190.86 0.814331H1167.07C1161.54 0.814331 1157.05 5.30117 1157.05 10.8314V530.775C1157.05 536.305 1161.54 540.792 1167.07 540.792H1206.41C1231.14 540.792 1251.18 520.758 1251.18 496.028V344.104C1251.18 287.029 1289.79 239.97 1345.31 239.97C1395.4 239.97 1431.72 269.29 1431.72 338.678V160.46C1413.87 155.347 1393.31 152.738 1370.04 152.738H1369.94Z" fill="url(#paint0_linear_403_6)"/>
<path d="M1525.85 319.375V530.775C1525.85 536.305 1521.36 540.792 1515.83 540.792H1476.48C1451.75 540.792 1431.72 520.758 1431.72 496.028V160.46C1496.42 179.137 1525.85 231.726 1525.85 319.375Z" fill="#26DFCB"/>
<path d="M2323.54 586.286C2274.71 635.536 2203.43 706.907 2203.43 706.907C2186 724.123 2166.07 724.332 2148.64 706.907C2148.64 706.907 2079.56 637.727 2031.03 588.999C2030.3 588.268 2029.47 587.433 2028.74 586.703C2025.92 583.468 2026.55 581.694 2027.9 580.338C2029.47 578.773 2034.37 581.068 2035.31 581.486H2035.42C2075.59 604.963 2123.08 617.067 2175.57 617.067C2228.06 617.067 2275.85 604.859 2316.24 581.277V581.486C2316.24 581.486 2322.19 578.564 2323.96 580.234C2325.32 581.59 2325.94 583.155 2323.44 586.181L2323.54 586.286Z" fill="url(#paint1_linear_403_6)"/>
<path d="M2373.95 350.991C2373.95 460.552 2299.13 549.243 2175.67 549.243C2052.22 549.243 1978.12 460.552 1978.12 350.991C1978.12 241.43 2053.68 152.738 2174.84 152.738C2295.99 152.738 2373.84 242.161 2373.84 350.991H2373.95ZM2072.25 350.991C2072.25 408.902 2107.01 462.847 2175.67 462.847C2244.34 462.847 2279.09 408.902 2279.09 350.991C2279.09 293.08 2239.02 238.404 2175.67 238.404C2107.74 238.404 2072.25 293.915 2072.25 350.991Z" fill="#9B9EA1"/>
<path d="M1911.96 0.814331H1850.71C1836.41 0.814331 1822.95 7.70102 1814.6 19.1788L1704.92 169.955C1696.78 181.12 1680.19 181.12 1672.15 169.955L1562.47 19.1788C1554.02 7.59668 1540.66 0.814331 1526.37 0.814331H1464.9C1446.64 0.814331 1431.82 15.6311 1431.82 33.8912V134.374C1431.82 138.965 1434.95 143.034 1439.44 144.078C1472.31 152.217 1494.54 171.729 1508.1 188.528C1514.05 195.832 1525.95 191.658 1525.95 182.268V168.286C1525.95 158.582 1538.37 154.512 1544.11 162.338L1652.22 310.193C1670.17 334.818 1706.9 334.818 1724.96 310.193L1833.07 162.338C1838.81 154.512 1851.23 158.582 1851.23 168.286V499.472C1851.23 522.323 1869.7 540.792 1892.55 540.792H1935.34C1940.87 540.792 1945.36 536.305 1945.36 530.775V33.9956C1945.36 15.6312 1930.54 0.814331 1912.17 0.814331H1911.96Z" fill="#9B9EA1"/>
<path d="M171.3 635.014H230.157V645.553H182.883V671.743H225.148V682.281H182.883V709.307H231.618V719.845H171.3V635.014Z" fill="#9B9EA1"/>
<path d="M357.158 662.039C361.437 666.421 363.628 672.473 363.628 680.299V719.949H352.358V683.325C352.358 677.899 350.792 673.725 347.766 670.699C344.74 667.673 340.565 666.108 335.243 666.108C329.504 666.108 324.808 667.986 321.26 671.638C317.711 675.186 315.624 679.882 315.103 685.62V719.949H303.832V655.883H315.103V669.447C319.381 660.369 327.521 655.674 339.418 655.465C346.931 655.465 352.88 657.656 357.158 662.039Z" fill="#9B9EA1"/>
<path d="M428.539 734.14C431.565 734.14 433.965 733.201 435.53 731.01C437.096 728.819 437.931 725.688 437.931 721.41V655.778H449.306V723.08C449.306 729.653 447.74 734.766 444.505 738.418C441.27 742.07 436.783 743.844 431.043 743.844C427.391 743.844 423.738 743.114 419.981 741.653L422.695 733.097C424.469 733.723 426.451 734.14 428.539 734.349V734.14ZM448.575 632.197C449.932 633.553 450.558 635.327 450.558 637.414C450.558 639.501 449.932 641.275 448.575 642.631C447.218 643.987 445.549 644.718 443.566 644.718C441.583 644.718 439.913 643.987 438.557 642.631C437.2 641.275 436.574 639.501 436.574 637.414C436.574 635.327 437.2 633.553 438.557 632.197C439.913 630.84 441.583 630.11 443.566 630.11C445.549 630.11 447.218 630.84 448.575 632.197Z" fill="#9B9EA1"/>
<path d="M568.375 659.535C573.385 662.248 577.246 666.108 579.959 671.012C582.777 675.916 584.133 681.447 584.133 687.812C584.133 694.177 582.777 699.707 579.959 704.611C577.141 709.515 573.28 713.376 568.375 716.089C563.471 718.802 557.731 720.158 551.365 720.158C545 720.158 539.156 718.802 534.251 716.089C529.346 713.376 525.381 709.515 522.667 704.611C519.85 699.707 518.493 694.072 518.493 687.707C518.493 681.342 519.85 675.812 522.667 670.908C525.485 666.004 529.346 662.248 534.251 659.43C539.26 656.717 544.895 655.361 551.365 655.361C557.835 655.361 563.471 656.717 568.375 659.43V659.535ZM540.095 668.091C536.86 670.073 534.251 672.682 532.477 676.125C530.703 679.569 529.764 683.429 529.764 687.812C529.764 692.194 530.703 696.263 532.477 699.707C534.251 703.15 536.86 705.863 540.095 707.741C543.33 709.619 547.087 710.559 551.261 710.559C555.435 710.559 559.088 709.619 562.323 707.741C565.558 705.863 568.167 703.15 569.941 699.707C571.715 696.263 572.654 692.298 572.654 687.812C572.654 683.325 571.715 679.569 569.941 676.125C568.167 672.682 565.558 669.969 562.323 668.091C559.088 666.108 555.331 665.169 551.261 665.169C547.191 665.169 543.33 666.108 540.095 668.091Z" fill="#9B9EA1"/>
<path d="M666.679 740.088C663.34 742.592 659.374 743.844 654.887 743.844C652.174 743.844 649.669 743.427 647.373 742.592C645.077 741.757 642.886 740.505 640.799 738.836L645.599 729.966C648.417 731.949 651.339 732.992 654.156 732.992C658.957 732.992 662.609 730.279 665.114 724.749L667.514 719.01L641.007 655.674H652.904L673.254 707.011L692.559 655.674H704.039L674.715 728.819C672.732 733.723 670.019 737.479 666.679 739.983V740.088Z" fill="#9B9EA1"/>
<path d="M889.898 715.671C884.993 718.802 879.984 720.367 874.87 720.367C869.757 720.367 865.687 718.802 862.556 715.776C859.426 712.75 857.86 708.159 857.86 702.002V666.526H848.781V657.969H857.86V640.753H869.235V657.969H888.854V666.526H869.235V700.02C869.235 703.568 869.861 706.072 871.218 707.637C872.47 709.202 874.453 709.933 877.062 709.933C880.088 709.933 883.428 708.889 886.976 706.906L890.002 715.671H889.898Z" fill="#9B9EA1"/>
<path d="M1012.2 662.039C1016.48 666.421 1018.67 672.473 1018.67 680.299V719.949H1007.4V683.325C1007.4 677.899 1005.84 673.725 1002.81 670.699C999.785 667.673 995.61 666.108 990.288 666.108C984.027 666.108 979.122 668.299 975.47 672.369C971.817 676.438 970.043 681.864 970.043 688.333V719.845H958.772V629.901H970.043V669.552C974.322 660.265 982.461 655.569 994.567 655.361C1002.08 655.361 1008.03 657.552 1012.31 661.934L1012.2 662.039Z" fill="#9B9EA1"/>
<path d="M1141.5 664.126C1146.61 669.969 1149.12 678.108 1149.12 688.542C1149.12 690.212 1149.12 691.359 1149.01 692.194H1098.4C1099.34 697.933 1101.74 702.524 1105.6 705.863C1109.57 709.306 1114.37 710.976 1120.11 710.976C1123.86 710.976 1127.41 710.245 1130.75 708.889C1133.99 707.533 1136.91 705.55 1139.31 703.046L1145.47 709.515C1142.34 712.958 1138.47 715.567 1134.09 717.445C1129.6 719.323 1124.7 720.262 1119.27 720.262C1113.01 720.262 1107.38 718.906 1102.47 716.193C1097.57 713.48 1093.81 709.619 1091.1 704.715C1088.38 699.811 1087.03 694.177 1087.03 687.916C1087.03 681.655 1088.38 676.021 1091.1 671.117C1093.81 666.213 1097.57 662.352 1102.47 659.639C1107.38 656.926 1112.8 655.465 1119.06 655.465C1128.98 655.465 1136.49 658.387 1141.6 664.23L1141.5 664.126ZM1139 683.429C1138.68 677.586 1136.7 672.995 1133.15 669.656C1129.6 666.317 1124.91 664.647 1119.06 664.647C1113.22 664.647 1108.73 666.317 1104.98 669.76C1101.22 673.204 1099.03 677.69 1098.3 683.429H1139Z" fill="#9B9EA1"/>
<path d="M161.281 93.3671H10.069C4.53809 93.3671 0.0507812 88.8803 0.0507812 83.35V54.4469C0.0507812 24.8133 24.0527 0.814331 53.6899 0.814331H434.382C439.913 0.814331 444.4 5.30117 444.4 10.8314V39.7344C444.4 69.3679 420.398 93.3671 390.761 93.3671H283.17C277.639 93.3671 273.151 97.8538 273.151 103.384V487.055C273.151 516.688 249.149 540.687 219.512 540.687H181.422C175.891 540.687 171.404 536.201 171.404 530.67V103.28C171.404 97.7495 166.917 93.2626 161.386 93.2626L161.281 93.3671Z" fill="#26DFCB"/>
<path d="M718.753 384.172H443.252C436.678 384.172 431.773 390.433 433.547 396.902C446.487 443.022 495.848 472.968 571.402 463.473C592.273 460.865 613.249 454.604 630.363 442.291C640.068 435.3 653.217 436.657 661.566 444.9L699.134 481.942C703.204 486.011 703.099 492.69 698.821 496.55C658.331 533.175 597.178 550.913 542.912 550.913C411.737 550.913 333.887 469.943 333.887 348.069C333.887 226.196 412.571 149.086 536.025 149.086C659.478 149.086 739.624 224.631 728.875 375.094C728.458 380.312 724.075 384.381 718.857 384.381L718.753 384.172ZM625.667 306.228C632.241 306.228 637.042 299.967 635.372 293.602C624.623 252.699 588.203 232.248 539.051 232.248C493.135 232.248 454.836 252.282 437.512 292.35C434.695 298.924 439.6 306.332 446.8 306.332H625.771L625.667 306.228Z" fill="#26DFCB"/>
<path d="M1111.86 484.864C1116.04 488.933 1115.93 495.611 1111.65 499.472C1070.02 537.244 1025.87 552.374 972.756 552.374C862.452 552.374 770.618 486.011 770.618 350.991C770.618 215.971 862.452 149.608 972.756 149.608C1023.58 149.608 1063.44 163.277 1102.68 198.858C1106.85 202.615 1107.06 209.084 1103.2 213.153L1078.16 239.448C1063.86 254.473 1041.42 258.647 1022.74 249.569C1007.09 242.056 990.393 238.196 974.322 238.196C911.082 238.196 864.748 284.524 864.748 350.782C864.748 423.301 914.108 461.908 972.756 461.908C992.48 461.908 1012.2 458.256 1030.05 449.178C1047.89 440.1 1069.6 443.335 1083.9 457.421L1111.86 484.759V484.864Z" fill="#26DFCB"/>
<path d="M1325.58 659.117C1329.45 656.717 1334.04 655.465 1339.36 655.465V666.421C1332.79 666.213 1327.57 667.882 1323.5 671.534C1319.43 675.186 1317.13 680.09 1316.61 686.246V720.054H1305.34V655.987H1316.61V669.76C1318.7 665.169 1321.72 661.621 1325.58 659.326V659.117Z" fill="#26DFCB"/>
<path d="M1416.79 632.197C1418.15 633.553 1418.77 635.327 1418.77 637.414C1418.77 639.501 1418.15 641.275 1416.79 642.631C1415.44 643.987 1413.77 644.718 1411.78 644.718C1409.8 644.718 1408.13 643.987 1406.77 642.631C1405.42 641.275 1404.79 639.501 1404.79 637.414C1404.79 635.327 1405.42 633.553 1406.77 632.197C1408.13 630.84 1409.8 630.11 1411.78 630.11C1413.77 630.11 1415.44 630.84 1416.79 632.197ZM1406.15 655.674H1417.42V719.741H1406.15V655.674Z" fill="#26DFCB"/>
<path d="M1553.71 629.901V719.845H1542.44V707.115C1540.04 711.393 1536.8 714.732 1532.73 717.028C1528.66 719.323 1523.86 720.471 1518.54 720.471C1512.49 720.471 1507.17 719.115 1502.47 716.297C1497.77 713.48 1494.23 709.62 1491.62 704.715C1489.01 699.707 1487.75 694.072 1487.75 687.707C1487.75 681.342 1489.01 675.812 1491.62 670.908C1494.23 666.004 1497.77 662.248 1502.47 659.43C1507.17 656.717 1512.38 655.361 1518.44 655.361C1523.97 655.361 1528.77 656.509 1532.84 658.804C1536.91 661.1 1540.14 664.334 1542.54 668.612V630.11H1553.81L1553.71 629.901ZM1532 707.846C1535.24 705.863 1537.85 703.15 1539.72 699.707C1541.6 696.263 1542.54 692.298 1542.54 687.916C1542.54 683.534 1541.6 679.464 1539.72 676.021C1537.85 672.578 1535.34 669.865 1532 667.882C1528.66 665.9 1525.01 664.961 1520.84 664.961C1516.66 664.961 1512.9 665.9 1509.67 667.882C1506.43 669.865 1503.83 672.578 1501.95 676.021C1500.07 679.464 1499.13 683.429 1499.13 687.812C1499.13 692.194 1500.07 696.055 1501.95 699.602C1503.83 703.046 1506.33 705.759 1509.67 707.741C1512.9 709.724 1516.66 710.663 1520.84 710.663C1525.01 710.663 1528.77 709.724 1532 707.741V707.846Z" fill="#26DFCB"/>
<path d="M1679.14 664.126C1684.26 669.969 1686.76 678.108 1686.76 688.542C1686.76 690.212 1686.76 691.359 1686.66 692.194H1636.04C1636.98 697.933 1639.38 702.524 1643.25 705.863C1647.21 709.306 1652.01 710.976 1657.75 710.976C1661.51 710.976 1665.06 710.245 1668.4 708.889C1671.63 707.533 1674.55 705.55 1676.95 703.046L1683.11 709.515C1679.98 712.958 1676.12 715.567 1671.73 717.445C1667.25 719.323 1662.34 720.262 1656.92 720.262C1650.65 720.262 1645.02 718.906 1640.11 716.193C1635.21 713.48 1631.45 709.619 1628.74 704.715C1626.03 699.811 1624.67 694.177 1624.67 687.916C1624.67 681.655 1626.03 676.021 1628.74 671.117C1631.45 666.213 1635.21 662.352 1640.11 659.639C1645.02 656.926 1650.45 655.465 1656.71 655.465C1666.62 655.465 1674.13 658.387 1679.25 664.23L1679.14 664.126ZM1676.64 683.429C1676.33 677.586 1674.34 672.995 1670.8 669.656C1667.25 666.317 1662.55 664.647 1656.71 664.647C1650.86 664.647 1646.38 666.317 1642.62 669.76C1638.86 673.204 1636.67 677.69 1635.94 683.429H1676.64Z" fill="#26DFCB"/>
<defs>
<linearGradient id="paint0_linear_403_6" x1="1157.05" y1="270.751" x2="1431.72" y2="270.751" gradientUnits="userSpaceOnUse">
<stop stop-color="#26DFCB"/>
<stop offset="0.2" stop-color="#27DAC7"/>
<stop offset="0.4" stop-color="#2ACEBD"/>
<stop offset="0.6" stop-color="#2FBAAC"/>
<stop offset="0.81" stop-color="#369D94"/>
<stop offset="1" stop-color="#3F7C79"/>
</linearGradient>
<linearGradient id="paint1_linear_403_6" x1="2026.86" y1="649.831" x2="2325.21" y2="649.831" gradientUnits="userSpaceOnUse">
<stop stop-color="#26DFCB"/>
<stop offset="0.2" stop-color="#27DAC7"/>
<stop offset="0.4" stop-color="#2ACEBD"/>
<stop offset="0.6" stop-color="#2FBAAC"/>
<stop offset="0.81" stop-color="#369D94"/>
<stop offset="1" stop-color="#3F7C79"/>
</linearGradient>
</defs>
</svg>
