<svg width="680" height="975" viewBox="0 0 680 975" fill="none" xmlns="http://www.w3.org/2000/svg">
<path d="M593.408 744.806C509.506 829.415 387.06 952.026 387.06 952.026C357.12 981.603 322.878 981.961 292.939 952.026C292.939 952.026 174.257 833.18 90.893 749.467C89.638 748.212 88.2038 746.778 86.9489 745.524C82.1084 739.967 83.1843 736.919 85.5149 734.589C88.204 731.9 96.6299 735.844 98.2434 736.561H98.4229C167.445 776.893 249.016 797.687 339.192 797.687C429.369 797.687 511.478 776.714 580.859 736.202V736.561C580.859 736.561 591.077 731.542 594.125 734.41C596.456 736.74 597.532 739.429 593.229 744.627L593.408 744.806Z" fill="url(#paint0_linear_404_13)"/>
<path d="M680 340.585C680 528.803 551.458 681.17 339.373 681.17C127.287 681.17 0 528.803 0 340.585C0 152.367 129.797 0 337.938 0C546.079 0 679.821 153.622 679.821 340.585H680ZM161.709 340.585C161.709 440.072 221.408 532.747 339.373 532.747C457.337 532.747 517.037 440.072 517.037 340.585C517.037 241.098 448.194 147.169 339.373 147.169C222.663 147.169 161.709 242.533 161.709 340.585Z" fill="#9B9EA1"/>
<defs>
<linearGradient id="paint0_linear_404_13" x1="83.722" y1="853.973" x2="596.277" y2="853.973" gradientUnits="userSpaceOnUse">
<stop stop-color="#26DFCB"/>
<stop offset="0.2" stop-color="#27DAC7"/>
<stop offset="0.4" stop-color="#2ACEBD"/>
<stop offset="0.6" stop-color="#2FBAAC"/>
<stop offset="0.81" stop-color="#369D94"/>
<stop offset="1" stop-color="#3F7C79"/>
</linearGradient>
</defs>
</svg>
