<?xml version="1.0" encoding="UTF-8"?>
<svg width="67px" height="50px" viewBox="0 0 67 50" version="1.1" xmlns="http://www.w3.org/2000/svg" xmlns:xlink="http://www.w3.org/1999/xlink">
    <!-- Generator: Sketch 46.2 (44496) - http://www.bohemiancoding.com/sketch -->
    <title>icon-landing-1</title>
    <desc>Created with Sketch.</desc>
    <defs></defs>
    <g id="MAH" stroke="none" stroke-width="1" fill="none" fill-rule="evenodd">
        <g id="L&amp;F-Landing-Concesionaria" transform="translate(-153.000000, -523.000000)">
            <g id="icon-landing-1" transform="translate(153.000000, 523.000000)">
                <g id="Group-9">
                    <g id="Group-4">
                        <g id="Page-1" transform="translate(37.894737, 0.000000)">
                            <path d="M27.9085233,20 L16.8283188,20 C16.2544759,20 15.7894737,20.4714476 15.7894737,21.0528778 C15.7894737,21.6339797 16.2544759,22.1052632 16.8283188,22.1052632 L27.9085233,22.1052632 C28.4817183,22.1052632 28.9473684,21.6339797 28.9473684,21.0528778 C28.9473684,20.4714476 28.4822042,20 27.9085233,20" id="Fill-3" fill="#231F20"></path>
                            <path d="M25.1797584,9.59657893 C24.9558097,9.05251723 24.350747,8.80136045 23.8277185,9.03431505 L22.7296476,9.5234362 C22.206619,9.75705876 21.9645297,10.3864536 22.1891205,10.9298474 C22.3559182,11.3363072 22.7365506,11.5789474 23.1353238,11.5789474 C23.2708167,11.5789474 23.4087177,11.5515606 23.5405183,11.4922782 L24.6390709,11.0029901 C25.1614572,10.7700355 25.4035465,10.1406406 25.1797584,9.59657893" id="Fill-5" fill="#231F20"></path>
                            <path d="M20.9705589,11.1886071 C20.750578,10.6342422 20.1550199,10.3773331 19.6415207,10.6148207 L16.4028776,12.1135141 C15.8893784,12.351172 15.6514076,12.9932745 15.8715464,13.5476394 C16.0361375,13.9623058 16.4096632,14.2105263 16.8022834,14.2105263 C16.9354713,14.2105263 17.070395,14.1819051 17.2005846,14.121937 L20.4392277,12.6232436 C20.9527269,12.385756 21.1906976,11.7428017 20.9705589,11.1886071" id="Fill-7" fill="#231F20"></path>
                            <path d="M24.6397395,31.1038644 L23.5391568,30.6130931 C23.0173301,30.3803064 22.4129157,30.6319497 22.1885655,31.1756194 C21.9650172,31.7186217 22.2068471,32.3475632 22.7291548,32.5803499 L23.8292565,33.0711212 C23.961397,33.1298602 24.0985088,33.1578947 24.2338566,33.1578947 C24.6328439,33.1578947 25.0125874,32.9147619 25.1798478,32.5092624 C25.4033961,31.9655926 25.1615662,31.3366511 24.6397395,31.1038644" id="Fill-9" fill="#231F20"></path>
                            <path d="M20.4387125,29.4816708 L17.2010031,27.9833484 C16.6867202,27.7456412 16.0916169,28.0026036 15.8715707,28.557765 C15.6513667,29.1122448 15.889408,29.7544804 16.4030595,29.9921876 L19.6415582,31.49051 C19.7709971,31.5503203 19.9065923,31.5789474 20.0398196,31.5789474 C20.4325563,31.5789474 20.8057192,31.3306754 20.9703592,30.9167751 C21.1910368,30.3616136 20.952364,29.7192077 20.4387125,29.4816708" id="Fill-11" fill="#231F20"></path>
                            <path d="M7.95321637,34.7368421 L0.994152047,34.7368421 C0.447368421,34.7368421 0,34.2993586 0,33.7646564 L0,0.97218567 C0,0.437483551 0.447368421,0 0.994152047,0 L7.95321637,0 C8.5,0 8.94736842,0.437483551 8.94736842,0.97218567 L8.94736842,33.7646564 C8.94736842,34.2993586 8.5,34.7368421 7.95321637,34.7368421" id="Fill-13" fill="#E40019"></path>
                        </g>
                        <path d="M47.9106675,37.7978934 C47.9106675,38.4515078 47.3793764,38.9833033 46.726745,38.9833033 L43.3839433,38.9833033 C42.7311491,38.9833033 42.2000208,38.4515078 42.2000208,37.7978934 L42.2000208,13.2547382 C42.2000208,12.6776071 41.732413,12.2087595 41.1560061,12.2087595 C40.5789477,12.2087595 40.111177,12.6769548 40.111177,13.2547382 L40.111177,36.1142819 C35.9986384,34.1584941 24.0090818,28.9744252 8.71174118,26.9582988 C8.11188059,26.8793693 7.6600714,26.3735031 7.6600714,25.7823474 L7.6600714,16.3448927 C7.6600714,15.7537369 8.11188059,15.2478707 8.71174118,15.1689412 C24.0090818,13.1528148 35.9986384,7.96874594 40.111177,6.01361048 L40.111177,8.79228703 C40.111177,9.37007041 40.5789477,9.83842883 41.1560061,9.83842883 C41.732413,9.83842883 42.2000208,9.37007041 42.2000208,8.79228703 L42.2000208,4.32934665 C42.2000208,3.67573225 42.7311491,3.14458902 43.3839433,3.14458902 L46.726745,3.14458902 C47.3793764,3.14458902 47.9106675,3.67573225 47.9106675,4.32934665 L47.9106675,37.7978934 Z M21.9541155,47.9073902 L17.2231488,47.9073902 C16.6931606,47.9073902 16.2242498,47.5505768 16.0823876,47.0398183 L11.1988091,29.4362606 C13.2550784,29.7663293 15.2406609,30.1497244 17.1443183,30.570138 L21.9541155,47.9073902 Z M5.57073892,25.5957868 L3.27276636,25.5957868 C2.61997212,25.5957868 2.08933248,25.0638282 2.08933248,24.4102138 L2.08933248,17.716374 C2.08933248,17.0627596 2.61997212,16.5316163 3.27276636,16.5316163 L5.57073892,16.5316163 L5.57073892,25.5957868 Z M46.726745,1.05263158 L43.3839433,1.05263158 C41.8105919,1.05263158 40.4936024,2.16987514 40.1812123,3.65355372 C37.615314,4.93909321 25.0219878,10.9091953 8.43876634,13.0947592 C7.50811107,13.2177196 6.70840554,13.7242381 6.19112148,14.4394958 L3.27276636,14.4394958 C1.46846131,14.4394958 0,15.909802 0,17.7170263 L0,24.4102138 C0,26.217438 1.46846131,27.6877442 3.27276636,27.6877442 L6.19112148,27.6877442 C6.70840554,28.4030019 7.50811107,28.9095204 8.43876634,29.0324808 C8.6055481,29.0541701 8.7715155,29.0776533 8.93699428,29.1006472 L14.0694425,47.5996631 C14.4613144,49.0125661 15.7585964,49.9993477 17.2231488,49.9993477 L23.3245273,49.9993477 C23.3258303,49.9993477 23.3271333,50 23.3282734,50 C23.3295764,50 23.3308794,49.9993477 23.3321824,49.9993477 L24.442975,49.9993477 C25.0193819,49.9993477 25.4876412,49.5311524 25.4876412,48.953369 C25.4876412,48.3755856 25.0200334,47.9073902 24.442975,47.9073902 L24.1229299,47.9073902 L19.4619985,31.1084567 C30.4208959,33.7821114 38.2229924,37.4921232 40.1818638,38.4736863 C40.4936024,39.9573649 41.8105919,41.0747715 43.3839433,41.0747715 L46.726745,41.0747715 C48.5317016,41.0747715 50,39.6044653 50,37.7978934 L50,4.32934665 C50,2.52277473 48.5317016,1.05263158 46.726745,1.05263158 L46.726745,1.05263158 Z" id="Fill-1" fill="#231F20"></path>
                    </g>
                </g>
            </g>
        </g>
    </g>
</svg>