<?xml version="1.0" encoding="UTF-8"?>
<svg width="13px" height="12px" viewBox="0 0 13 12" version="1.1" xmlns="http://www.w3.org/2000/svg" xmlns:xlink="http://www.w3.org/1999/xlink">
    <!-- Generator: Sketch 51.2 (57519) - http://www.bohemiancoding.com/sketch -->
    <title>ion-close - Ionicons</title>
    <desc>Created with Sketch.</desc>
    <defs></defs>
    <g id="123seguro" stroke="none" stroke-width="1" fill="none" fill-rule="evenodd">
        <g id="123-4" transform="translate(-700.000000, -360.000000)" fill="#E40019">
            <path d="M711.906251,370.09375 C711.989585,370.177084 712.031251,370.281249 712.031251,370.40625 C712.031251,370.531251 711.989585,370.635416 711.906251,370.71875 L710.718751,371.875 C710.635417,371.958334 710.541668,372 710.437501,372 C710.3125,372 710.208335,371.958334 710.125001,371.875 L706.031251,367.78125 L701.937501,371.875 C701.854167,371.958334 701.760418,372 701.656251,372 C701.53125,372 701.427085,371.958334 701.343751,371.875 L700.156251,370.71875 C700.072917,370.635416 700.031251,370.531251 700.031251,370.40625 C700.031251,370.281249 700.072917,370.177084 700.156251,370.09375 L704.281251,366 L700.156251,361.9375 C699.947916,361.729166 699.947916,361.520834 700.156251,361.3125 L701.312501,360.125 C701.437501,360.041666 701.541667,360 701.625001,360 C701.750001,360 701.854167,360.041666 701.937501,360.125 L706.031251,364.1875 L710.125001,360.125 C710.250001,360.041666 710.354167,360 710.437501,360 C710.562501,360 710.666667,360.041666 710.750001,360.125 L711.906251,361.3125 C712.114585,361.520834 712.114585,361.718749 711.906251,361.90625 L707.781251,365.96875 L711.906251,370.09375 Z" id="ion-close---Ionicons"></path>
        </g>
    </g>
</svg>