<?xml version="1.0" encoding="UTF-8" standalone="no"?>
<svg width="48px" height="50px" viewBox="0 0 48 50" version="1.1" xmlns="http://www.w3.org/2000/svg" xmlns:xlink="http://www.w3.org/1999/xlink">
    <!-- Generator: Sketch 46.2 (44496) - http://www.bohemiancoding.com/sketch -->
    <title>Inmediata</title>
    <desc>Created with Sketch.</desc>
    <defs></defs>
    <g id="MAH" stroke="none" stroke-width="1" fill="none" fill-rule="evenodd">
        <g id="L&amp;F-Landing-Concesionaria" transform="translate(-199.000000, -648.000000)">
            <g id="Inmediata" transform="translate(199.000000, 648.000000)">
                <path d="M48,26.5 C48,37.8220213 38.8220213,47 27.5,47 C16.1785136,47 7,37.8220213 7,26.5 C7,15.1779787 16.1785136,6 27.5,6 C38.8220213,6 48,15.1779787 48,26.5" id="Fill-8" fill="#E21E26"></path>
                <path d="M22.0013171,8.49950929 C32.2412385,8.49950929 40.586166,17.0410793 40.586166,27.5222976 C40.586166,38.0062121 32.2412385,46.5477821 22.0013171,46.5477821 C11.7587615,46.5477821 3.41383398,38.0062121 3.41383398,27.5222976 C3.41383398,16.9968616 11.7587615,8.49950929 22.0013171,8.49950929 M0,27.4802368 C0,39.9037995 9.86166022,50 22.0013171,50 C34.1388666,50 44,39.9037995 44,27.4802368 C44,21.3107859 41.5555263,15.6590059 37.593793,11.6044563 L39.3223099,9.83682581 L40.1230858,10.6564714 C40.4607814,11.0021246 40.8822424,11.1746816 41.3453226,11.1746816 C41.8084029,11.1746816 42.2303907,11.0021246 42.5680863,10.6564714 C43.2429507,9.9657043 43.2429507,8.84516247 42.5680863,8.15385611 L38.5631533,4.05508881 C37.8903962,3.36593941 36.793544,3.36593941 36.1181528,4.05508881 C35.4453957,4.74585594 35.4453957,5.86639777 36.1181528,6.55716489 L36.9210359,7.3768105 L35.0234078,9.31861566 C31.8192507,6.90281807 27.9855362,5.39240534 23.7709264,5.04729139 L23.7709264,3.53903562 L27.6046409,3.53903562 C28.5740011,3.53903562 29.3336846,2.76145077 29.3336846,1.76924819 C29.3336846,0.777584849 28.5740011,0 27.6046409,0 L16.2267747,0 C15.2574145,0 14.4977311,0.777584849 14.4977311,1.76924819 C14.4977311,2.76145077 15.2574145,3.53903562 16.2267747,3.53903562 L20.3133658,3.53903562 L20.3133658,5.04729139 C8.93549971,5.95267625 0,15.6590059 0,27.4802368" id="Fill-9" fill="#231F20"></path>
                <path d="M22.7560193,28 L30.246656,28 C31.2306046,28 32,27.2465287 32,26.2829447 C32,25.3188368 31.2306046,24.5632696 30.246656,24.5632696 L24.5093633,24.5632696 L24.5093633,15.7191512 C24.5093633,14.7555672 23.7399679,14 22.7560193,14 C21.7715356,14 21,14.7555672 21,15.7191512 L21,26.3238145 C21,27.2465287 21.7715356,28 22.7560193,28" id="Fill-10" fill="#231F20"></path>
            </g>
        </g>
    </g>
</svg>