<?xml version="1.0" encoding="UTF-8"?>
<svg width="30px" height="44px" viewBox="0 0 30 44" version="1.1" xmlns="http://www.w3.org/2000/svg" xmlns:xlink="http://www.w3.org/1999/xlink">
    <!-- Generator: sketchtool 51.2 (57519) - http://www.bohemiancoding.com/sketch -->
    <title>300E833F-DAF3-4D11-87BF-31D4C930D664</title>
    <desc>Created with sketchtool.</desc>
    <defs></defs>
    <g id="MAH" stroke="none" stroke-width="1" fill="none" fill-rule="evenodd">
        <g id="MAH-Home-Modal-Tipo-de-vendedor" transform="translate(-515.000000, -554.000000)" fill-rule="nonzero">
            <g id="icon-comercial" transform="translate(515.000000, 554.000000)">
                <polygon id="Shape" fill="#E40019" points="16.6591928 24 14.1748879 25.6313655 15.1524664 28.1369986 13 41.6566021 15.1524664 44 19 40.7643082 16.4977578 28.1369986 18.3004484 25.6313655"></polygon>
                <path d="M29.3478261,35.646875 C28.9913043,35.646875 28.6956522,35.9390625 28.6956522,36.2914062 L28.6956522,42.35 C28.6956522,42.5476562 28.5304348,42.7023437 28.3391304,42.7023437 L24.8347826,42.7023437 L24.8347826,30.0179687 C24.8347826,29.665625 24.5391304,29.3734375 24.1826087,29.3734375 C23.826087,29.3734375 23.5304348,29.665625 23.5304348,30.0179687 L23.5304348,42.7109375 L16.4695652,42.7109375 L18.5130435,40.4851562 C18.7391304,40.2445312 18.8434783,39.8921875 18.7913043,39.5570312 C18.7913043,39.5484375 18.7913043,39.5398437 18.7913043,39.5398437 L16.8434783,28.153125 L17.3652174,27.3710937 C17.6521739,27.5773437 17.8782609,27.775 18.2956522,27.775 C18.7217391,27.775 19.1217391,27.5429687 19.3217391,27.1476562 L21.373913,23.0742187 L26.0608696,24.8703125 C26.226087,24.9390625 28.6956522,26.0390625 28.6956522,28.9265625 L28.6956522,33.2835937 C28.6956522,33.6359375 28.9913043,33.928125 29.3478261,33.928125 C29.7043478,33.928125 30,33.6359375 30,33.2835937 L30,28.9265625 C30,25.1195312 26.6956522,23.7273437 26.5565217,23.6757812 C26.5565217,23.6757812 26.5478261,23.6757812 26.5478261,23.6671875 L18.7478261,20.6851562 L18.7478261,18.8804687 C19.9826087,17.9265625 20.8434783,16.5171875 21.0608696,14.9101562 C21.6782609,14.8671875 22.2521739,14.6351562 22.7217391,14.2398437 C23.3304348,13.7242187 23.6869565,12.9679687 23.6869565,12.16875 C23.6869565,11.5070312 23.4434783,10.8710937 23.0173913,10.38125 L23.0173913,7.9921875 C23.0173913,3.58359375 19.3913043,0 14.9304348,0 C10.4695652,0 6.84347826,3.58359375 6.84347826,7.9921875 L6.84347826,10.4414062 C6.40869565,10.93125 6.17391304,11.5328125 6.17391304,12.16875 C6.17391304,12.9679687 6.52173913,13.7242187 7.13913043,14.2398437 C7.60869565,14.6351562 8.1826087,14.8671875 8.8,14.9101562 C9.0173913,16.5515625 9.90434783,18.0125 11.2434783,18.975 L11.2434783,20.6851562 L3.45217391,23.6671875 C3.45217391,23.6671875 3.44347826,23.6671875 3.44347826,23.6757812 C3.30434783,23.7359375 0,25.1195312 0,28.9265625 L0,42.35 C0,43.2609375 0.747826087,43.9914062 1.66086957,43.9914062 L7.86086957,43.9914062 C8.2173913,43.9914062 8.51304348,43.6992187 8.51304348,43.346875 C8.51304348,42.9945312 8.2173913,42.7023437 7.86086957,42.7023437 L6.46086957,42.7023437 L6.46086957,30.0179687 C6.46086957,29.665625 6.16521739,29.3734375 5.80869565,29.3734375 C5.45217391,29.3734375 5.15652174,29.665625 5.15652174,30.0179687 L5.15652174,42.7109375 L1.65217391,42.7109375 C1.45217391,42.7109375 1.29565217,42.5476562 1.29565217,42.3585937 L1.29565217,28.9265625 C1.29565217,26.021875 3.77391304,24.9304687 3.92173913,24.8703125 L8.6,23.0742187 L10.6608696,27.1476562 C10.8608696,27.534375 11.2608696,27.775 11.6869565,27.775 C12.1043478,27.775 12.3217391,27.5859375 12.6173913,27.3710937 L13.1391304,28.153125 L11.1913043,39.5398437 C11.1913043,39.5484375 11.1913043,39.5484375 11.1913043,39.5570312 C11.1478261,39.8921875 11.2521739,40.2445312 11.4695652,40.4851562 L13.5130435,42.7109375 L10.9043478,42.7109375 C10.5478261,42.7109375 10.2521739,43.003125 10.2521739,43.3554687 C10.2521739,43.7078125 10.5478261,44 10.9043478,44 L28.3304348,44 C29.2521739,44 29.9913043,43.2609375 29.9913043,42.3585937 L29.9913043,36.3 C30,35.9390625 29.7043478,35.646875 29.3478261,35.646875 Z M20.1565217,22.6101562 L18.2434783,26.4085937 C18.2,26.3742187 17.1826087,25.6609375 15.9391304,24.7929687 C16.4782609,24.13125 15.8434783,24.9046875 18.3043478,21.9054687 L20.1565217,22.6101562 Z M16.2956522,26.6234375 L15.8,27.3625 L14.173913,27.3625 L13.6782609,26.6234375 L14.9913043,25.7039062 L16.2956522,26.6234375 Z M12.5304348,20.8914063 L12.5304348,19.6882813 C13.3217391,20.00625 14.173913,20.1523438 15,20.1523438 C15.8521739,20.1523438 16.6956522,19.971875 17.4434783,19.6539063 L17.4434783,20.9085938 L14.9913043,23.890625 L12.5304348,20.8914063 Z M22.373913,12.1601562 C22.373913,12.58125 22.1913043,12.9851562 21.8695652,13.2601562 C21.6521739,13.440625 21.4,13.5609375 21.1130435,13.6039062 L21.1130435,10.725 C21.8608696,10.8453125 22.373913,11.4640625 22.373913,12.1601562 Z M8.73043478,13.6039062 C7.97391304,13.4835937 7.46956522,12.8648437 7.46956522,12.16875 C7.46956522,11.48125 8.04347826,10.9226563 8.73043478,10.759375 L8.73043478,13.6039062 Z M8.76521739,9.44453125 C8.55652174,9.4703125 8.32173913,9.521875 8.13913043,9.58203125 L8.13913043,7.9921875 C8.13913043,4.296875 11.1826087,1.2890625 14.9217391,1.2890625 C18.6608696,1.2890625 21.7043478,4.296875 21.7043478,7.9921875 L21.7043478,9.5390625 C21.5130435,9.47890625 21.3217391,9.44453125 21.1130435,9.42734375 C21.1130435,8.80859375 21.1217391,8.92890625 19.0608696,6.7375 C18.6782609,6.33359375 18.0521739,6.24765625 17.5826087,6.55703125 C15.3130435,8.0265625 12.5391304,8.75703125 9.9826087,8.5765625 C9.4173913,8.5421875 8.90434783,8.903125 8.76521739,9.44453125 Z M10.0347826,14.1109375 L10.0347826,10.0890625 L10.0347826,9.87421875 C12.8521739,10.0375 15.8,9.2125 18.1826087,7.7 C19.1304348,8.70546875 19.6347826,9.2296875 19.8,9.42734375 C19.8,9.934375 19.8,13.5265625 19.8,14.1023438 C19.8,16.7148438 17.6434783,18.8546875 14.9913043,18.8546875 C12.026087,18.8632812 10.0347826,16.5773438 10.0347826,14.1109375 Z M11.7391304,26.4085937 L9.82608696,22.6101562 L11.6782609,21.9054687 L14.0434783,24.7929687 C12.8434783,25.6351562 11.8521739,26.33125 11.7391304,26.4085937 Z M12.4869565,39.6773438 L14.373913,28.6515625 L15.6,28.6515625 L17.4869565,39.6773438 L14.9913043,42.3929688 L12.4869565,39.6773438 Z" id="Shape" fill="#000000"></path>
            </g>
        </g>
    </g>
</svg>