<?xml version="1.0" encoding="UTF-8"?>
<svg width="30px" height="30px" viewBox="0 0 30 30" version="1.1" xmlns="http://www.w3.org/2000/svg" xmlns:xlink="http://www.w3.org/1999/xlink">
    <!-- Generator: Sketch 46.2 (44496) - http://www.bohemiancoding.com/sketch -->
    <title>icon-comments-white</title>
    <desc>Created with Sketch.</desc>
    <defs></defs>
    <g id="MAH" stroke="none" stroke-width="1" fill="none" fill-rule="evenodd">
        <g id="L&amp;F-Panel-de-control---concesionaria---DASHBOARD" transform="translate(-1326.000000, -248.000000)" fill="#FFFFFF">
            <path d="M1331.98605,266.028469 L1344.0292,266.028469 L1344.0292,262.999915 L1331.98605,262.999915 L1331.98605,266.028469 Z M1331.98531,261.521535 L1350.01452,261.521535 L1350.01452,258.492981 L1331.98531,258.492981 L1331.98531,261.521535 Z M1331.98531,257.014601 L1350.01452,257.014601 L1350.01452,253.986046 L1331.98531,253.986046 L1331.98531,257.014601 Z M1353.0438,248 C1353.86065,248 1354.55808,248.28791 1355.13537,248.865197 C1355.71192,249.442483 1356.00056,250.139915 1356.00056,250.95676 L1356.00056,268.985228 C1356.00056,269.803539 1355.71192,270.51196 1355.13537,271.113421 C1354.55808,271.714151 1353.86065,272.014515 1353.0438,272.014515 L1331.98531,272.014515 L1326,277.999829 L1326,250.95676 C1326,250.139915 1326.28864,249.442483 1326.86593,248.865197 C1327.44248,248.28791 1328.13918,248 1328.95676,248 L1353.0438,248 Z" id="icon-comments-white"></path>
        </g>
    </g>
</svg>