<?xml version="1.0" encoding="UTF-8"?>
<svg width="31px" height="42px" viewBox="0 0 31 42" version="1.1" xmlns="http://www.w3.org/2000/svg" xmlns:xlink="http://www.w3.org/1999/xlink">
    <!-- Generator: sketchtool 51.2 (57519) - http://www.bohemiancoding.com/sketch -->
    <title>B898C434-6C9D-4933-982A-06A2E8AD05F4</title>
    <desc>Created with sketchtool.</desc>
    <defs></defs>
    <g id="MAH" stroke="none" stroke-width="1" fill="none" fill-rule="evenodd">
        <g id="MAH-Home-Modal-Tipo-de-vendedor" transform="translate(-516.000000, -390.000000)" fill-rule="nonzero">
            <g id="icon-llaves" transform="translate(516.000000, 390.000000)">
                <path d="M10.3606557,34 L6.63934426,34 C5.73770492,34 5,33.2136616 5,32.2525814 L5,24.7474186 C5,23.7863384 5.73770492,23 6.63934426,23 L10.3606557,23 C11.2622951,23 12,23.7863384 12,24.7474186 L12,32.2525814 C12,33.2136616 11.2622951,34 10.3606557,34 Z" id="Shape" fill="#E40019"></path>
                <path d="M26.7098608,9.44075829 C26.7539074,9.09952607 26.7803353,8.74954429 26.7803353,8.39956252 C26.7803353,3.76230405 22.9923274,0 18.3233873,0 C13.6544473,0 9.86643933,3.76230405 9.86643933,8.39956252 C9.86643933,8.63580022 9.88405797,8.87203791 9.90167661,9.09952607 L9.86643933,9.09952607 C7.08269395,9.10827561 4.72179596,11.1206708 4.29894856,13.8505286 C1.6913896,14.9529712 0,17.490339 0,20.2989428 L0,33.5982501 C0,35.5318994 1.57686843,37.0980678 3.52372833,37.0980678 L10.571185,37.0980678 C12.5180449,37.0980678 14.0949133,35.5318994 14.0949133,33.5982501 L14.0949133,20.2989428 C14.0949133,19.7302224 14.0244388,19.1702515 13.8834896,18.6277798 C14.5441887,17.9628144 15.0287013,17.1491068 15.2841716,16.2479038 C15.8127309,16.4491433 16.3589088,16.589136 16.913896,16.685381 L16.913896,20.2989428 C16.913896,22.2325921 18.4907644,23.7987605 20.4376243,23.7987605 L21.14237,23.7987605 L21.14237,39.1979584 C21.14237,39.3816989 21.2128446,39.5654393 21.3449844,39.6966825 L23.4592214,41.7965731 C23.7323103,42.067809 24.1815857,42.067809 24.4546746,41.7965731 L26.5689116,39.6966825 C26.7010514,39.5654393 26.771526,39.3904484 26.771526,39.1979584 L26.771526,36.3981043 C26.771526,36.2143638 26.7010514,36.0306234 26.5689116,35.8993802 L25.6615516,34.9981772 L26.5689116,34.0969741 C26.7010514,33.965731 26.771526,33.7907401 26.771526,33.5982501 L26.771526,32.8982865 C26.771526,32.7145461 26.7010514,32.5308057 26.5689116,32.3995625 L25.6615516,31.4983595 L26.5689116,30.5971564 C26.7010514,30.4659132 26.771526,30.2909223 26.771526,30.0984324 L26.771526,29.3984688 C26.771526,29.2147284 26.7010514,29.030988 26.5689116,28.8997448 L25.6615516,27.9985417 L26.5689116,27.0973387 C26.7010514,26.9660955 26.771526,26.7911046 26.771526,26.5986147 L26.771526,23.7987605 L27.4762717,23.7987605 C29.4231316,23.7987605 31,22.2325921 31,20.2989428 L31,15.399198 C31,12.7043383 29.2733731,10.3157127 26.7098608,9.44075829 Z M4.93321966,19.2489974 C4.93321966,18.8202698 5.10059676,18.4090412 5.39130435,18.0853081 C5.86700767,18.7065257 6.46604149,19.2227488 7.14435919,19.5989792 L4.93321966,19.5989792 C4.93321966,19.5989792 4.93321966,19.2489974 4.93321966,19.2489974 Z M6.73032111,17.4990886 C7.4438761,17.5078381 8.06933788,17.9453153 8.3336175,18.6015312 C7.71696505,18.3652935 7.17078716,17.9890631 6.73032111,17.4990886 Z M12.685422,33.5982501 C12.685422,34.7619395 11.7428247,35.6981407 10.571185,35.6981407 L3.52372833,35.6981407 C2.35208866,35.6981407 1.40949133,34.7619395 1.40949133,33.5982501 L1.40949133,20.2989428 C1.40949133,18.277798 2.51065644,16.4141451 4.28132992,15.4254466 C4.34299517,15.9154211 4.47513498,16.396646 4.66013072,16.8516223 C3.93776641,17.4465913 3.52372833,18.3215458 3.52372833,19.2489974 L3.52372833,20.2989428 C3.52372833,20.6839227 3.84086388,20.9989063 4.228474,20.9989063 L9.16169366,20.9989063 C9.54930378,20.9989063 9.86643933,20.6839227 9.86643933,20.2989428 L9.86643933,18.8990157 C9.85763001,18.8990157 9.84001137,18.8990157 9.83120205,18.8990157 C9.66382495,17.2016041 8.13981245,15.9504192 6.43080421,16.1166606 C6.26342711,16.1341597 6.08724069,16.1604083 5.92867292,16.204156 C5.76129582,15.7841779 5.67320261,15.3379511 5.65558397,14.8829748 C8.65956238,14.1042654 11.725206,15.8891724 12.5092356,18.8640175 C12.6325661,19.3277433 12.6942313,19.8177178 12.6942313,20.2989428 L12.685422,33.5982501 Z M13.9892015,15.6179366 C13.865871,16.1604083 13.645638,16.6678819 13.3196931,17.1141086 C11.9278204,14.3667517 8.88860472,12.8618301 5.84938903,13.4043019 C6.41318556,11.6718921 8.0341006,10.4994532 9.86643933,10.4907036 C9.95453254,10.4907036 10.0514351,10.4994532 10.1395283,10.5082027 C10.6857062,12.651841 12.0775789,14.4979949 13.9892015,15.6179366 Z M11.751634,10.9456799 C12.9497016,11.5406489 13.7865871,12.6605906 14.0244388,13.9642727 C13.0025575,13.1855633 12.2097187,12.1443675 11.751634,10.9456799 Z M16.9227053,15.2592052 C16.4381927,15.1629603 15.95368,15.014218 15.5044047,14.8129785 C15.5044047,14.7779803 15.513214,14.7342326 15.513214,14.6992344 C15.5044047,12.1706161 13.8042057,9.96573095 11.3464052,9.30076559 C11.3023586,9.00328108 11.28474,8.69704703 11.28474,8.39956252 C11.28474,4.53226394 14.4384768,1.39992709 18.3321966,1.39992709 C22.2259165,1.39992709 25.3796533,4.53226394 25.3796533,8.39956252 C25.370844,8.64454976 25.3532253,8.889537 25.3267974,9.13452424 C25.1065644,9.10827561 24.8951407,9.09952607 24.6749076,9.09952607 L23.2654163,9.09952607 C19.8121625,9.10827561 17.0019892,11.8381334 16.9227053,15.2592052 Z M26.0755897,13.9992709 C26.0755897,14.3842508 25.7584541,14.6992344 25.370844,14.6992344 L23.9173061,14.6992344 C24.3930094,14.2792563 24.8158568,13.8155304 25.1858483,13.2993073 L25.370844,13.2993073 C25.7584541,13.2993073 26.0755897,13.6142909 26.0755897,13.9992709 Z M25.370844,26.3098797 L24.163967,27.5085673 C23.8908781,27.7798031 23.8908781,28.2260299 24.163967,28.4972658 L25.370844,29.6959533 L25.370844,29.818447 L24.163967,31.0171345 C23.8908781,31.2883704 23.8908781,31.7345972 24.163967,32.005833 L25.370844,33.2045206 L25.370844,33.3270142 L24.163967,34.5257018 C23.8908781,34.7969377 23.8908781,35.2431644 24.163967,35.5144003 L25.370844,36.7130879 L25.370844,38.9354721 L23.9613527,40.3353992 L22.5518613,38.9354721 L22.5518613,23.7987605 L25.370844,23.7987605 L25.370844,26.3098797 Z M29.599318,20.2989428 C29.599318,21.4626322 28.6567207,22.3988334 27.485081,22.3988334 L20.4376243,22.3988334 C19.2659847,22.3988334 18.3233873,21.4626322 18.3233873,20.2989428 L18.3233873,15.399198 C18.3233873,12.6955888 20.5345269,10.4994532 23.256607,10.4994532 L24.6660983,10.4994532 C24.7894288,10.4994532 24.9127593,10.5082027 25.0272805,10.5169522 C24.8687127,10.9981772 24.657289,11.461903 24.4018187,11.8993802 L22.5518613,11.8993802 C21.389031,11.8993802 20.4464336,12.8355815 20.4464336,13.9992709 C20.4464336,14.8742253 20.9926115,15.6529347 21.8206877,15.9591688 L21.855925,16.0379147 C21.8823529,16.0291651 21.9087809,16.0116661 21.9352089,15.994167 C22.1378232,16.0641633 22.3492469,16.0991615 22.5606706,16.0991615 L25.3796533,16.0991615 C26.5424837,16.0991615 27.4938903,15.1629603 27.4938903,14.0080204 C27.4938903,13.0718192 26.8772379,12.249362 25.9698778,11.9868757 C26.1548735,11.6106453 26.304632,11.2169158 26.4279625,10.8144367 C28.3307758,11.5493985 29.599318,13.3693037 29.599318,15.399198 L29.599318,20.2989428 Z M23.3270816,13.2993073 C22.9218528,13.7105359 22.4637681,14.0692672 21.9704461,14.3755013 C21.8911623,14.2617572 21.8471157,14.130514 21.8471157,13.9992709 C21.8471157,13.6142909 22.1642512,13.2993073 22.5518613,13.2993073 L23.3270816,13.2993073 Z" id="Shape" fill="#000000"></path>
                <path d="M9.75,22 L5.25,22 C4.003125,22 3,22.9441176 3,24.1176471 L3,31.8823529 C3,33.0558824 4.003125,34 5.25,34 L9.75,34 C10.996875,34 12,33.0558824 12,31.8823529 L12,24.1176471 C12,22.9441176 10.996875,22 9.75,22 Z M10.5,31.8823529 C10.5,32.2705882 10.1625,32.5882353 9.75,32.5882353 L5.25,32.5882353 C4.8375,32.5882353 4.5,32.2705882 4.5,31.8823529 L4.5,30.4705882 L10.5,30.4705882 L10.5,31.8823529 Z M10.5,29.0588235 L4.5,29.0588235 L4.5,26.9411765 L10.5,26.9411765 L10.5,29.0588235 Z M10.5,25.5294118 L4.5,25.5294118 L4.5,24.1176471 C4.5,23.7294118 4.8375,23.4117647 5.25,23.4117647 L9.75,23.4117647 C10.1625,23.4117647 10.5,23.7294118 10.5,24.1176471 L10.5,25.5294118 Z" id="Shape" fill="#000000"></path>
            </g>
        </g>
    </g>
</svg>