<?xml version="1.0" encoding="UTF-8"?>
<svg width="80px" height="51px" viewBox="0 0 80 51" version="1.1" xmlns="http://www.w3.org/2000/svg" xmlns:xlink="http://www.w3.org/1999/xlink">
    <!-- Generator: Sketch 46.2 (44496) - http://www.bohemiancoding.com/sketch -->
    <title>Group@2x</title>
    <desc>Created with Sketch.</desc>
    <defs></defs>
    <g id="MAH" stroke="none" stroke-width="1" fill="none" fill-rule="evenodd">
        <g id="L&amp;F-Home" transform="translate(-149.000000, -524.000000)">
            <g id="Special/Section-credits" transform="translate(149.000000, 507.000000)">
                <g id="Group" transform="translate(0.000000, 17.000000)">
                    <g id="Group-5">
                        <path d="M55,38.3125 C55.1700263,38.216 55.3356705,38.109 55.5,38 L55.1371604,38.1645 L55,38.3125 Z" id="Fill-22" fill="#FBCCAC"></path>
                        <path d="M9.5605,27.56035 C9.8395,27.2815 10,26.8945 10,26.5 C10,26.10385 9.8395,25.7185 9.5605,25.4395 C9.2815,25.159 8.8945,25 8.5,25 C8.1055,25 7.7185,25.159 7.4395,25.4395 C7.1605,25.7185 7,26.104 7,26.5 C7,26.8945 7.1605,27.2815 7.4395,27.56035 C7.7185,27.83935 8.1055,28 8.5,28 C8.8945,27.99985 9.2815,27.83935 9.5605,27.56035" id="Fill-24" fill="#020303"></path>
                        <path d="M70.439522,25.4395 C70.160508,25.7185 70,26.104 70,26.5 C70,26.8945 70.160508,27.27985 70.439522,27.56035 C70.7185359,27.83935 71.1055553,28 71.500075,28 C71.8945947,28 72.2816141,27.8395 72.560628,27.56035 C72.839642,27.27985 73,26.8945 73,26.5 C73,26.10385 72.839642,25.7185 72.560628,25.4395 C72.2816141,25.159 71.8945947,25 71.500075,25 C71.1055553,25 70.7185359,25.159 70.439522,25.4395" id="Fill-29" fill="#020303"></path>
                        <polygon id="Fill-61" fill="#E40019" points="2 34.7594428 14.3741122 38 22 10.1842654 2 5"></polygon>
                        <g id="Group-28" fill="#020303">
                            <path d="M36.155462,48.6977345 L37.5143704,48.5995006 L38.1517193,48.1756514 C38.1517193,48.1756514 38.206924,49.7150668 39.4541754,50.5487991 C40.7014269,51.3826883 43.378386,50.8053683 43.378386,50.8053683 L44.8561248,48.9590114 L47.2027914,50.2699468 C47.2027914,50.2699468 49.3818168,51.2080329 51.415501,48.6977345 C51.4275088,48.6776483 51.4406082,48.6588175 51.4523041,48.6384175 L51.4613489,48.6224114 C52.058308,47.5821683 52.2128499,46.4041468 51.9853255,45.3105498 C53.0816218,44.9502545 53.9951501,44.206596 54.5763587,43.1936575 C55.1736296,42.1524729 55.3283275,40.9747652 55.1009591,39.8816391 C55.3847797,39.7882698 55.6562807,39.669636 55.9128109,39.5269929 L65.2720312,35.7868883 C65.5599064,36.0713898 65.9510175,36.2388268 66.364117,36.2388268 C66.4976062,36.2388268 66.6334347,36.2214083 66.7684834,36.1850022 L73.4349942,34.3890175 L76.5534347,33.5486945 L78.8280546,32.9359098 C79.6600234,32.7116668 80.1539025,31.8514145 79.9310565,31.0142298 C79.7082105,30.1770452 78.8533177,29.6805406 78.0216608,29.904156 L67.4678986,32.7477591 L60.849731,7.89381138 L78.8244678,3.10090985 C79.6569045,2.87902062 80.1531228,2.01986677 79.93246,1.18205446 C79.7116413,0.344242154 78.858152,-0.155087077 78.0255595,0.0672729231 L76.5537466,0.459737538 L73.4348382,1.29158677 L58.5393996,5.26346677 C58.1389318,5.37033138 57.7970994,5.63286369 57.5893801,5.99378677 C57.5466511,6.06816831 57.5118752,6.14600215 57.4819337,6.22524831 L54.472655,4.52498677 C52.6518363,3.496356 50.4717193,3.28953138 48.4918363,3.95786677 L45.5705107,4.94365754 C43.6185419,5.60242062 41.9081326,6.84179908 40.6644678,8.47756523 L36.5086784,5.938236 C34.7691072,4.87555292 32.6717973,4.65884215 30.7541365,5.34475292 L22.3778402,8.34025754 L22.6852086,7.18624523 C22.7923431,6.78373754 22.7360468,6.35455292 22.5284834,5.99378677 C22.3209201,5.63302062 21.9792437,5.37017446 21.5787758,5.26330985 L6.69222612,1.29048831 L3.57331774,0.458168308 L2.10166082,0.0653898462 C1.26953606,-0.156499385 0.415578947,0.342202154 0.194760234,1.18001446 C-0.0260584795,2.01766985 0.469847953,2.87682369 1.30244055,3.09886985 L19.2678207,7.89365446 L18.5938246,10.4248237 C18.5933567,10.4267068 18.5928889,10.4285898 18.5922651,10.4304729 L12.6494971,32.7474452 L2.10555945,29.9043129 C1.27359064,29.679756 0.418697856,30.1767314 0.195695906,31.013916 C-0.0273060429,31.8509437 0.466417154,32.7113529 1.29838596,32.9357529 L3.57316179,33.5491652 L6.69222612,34.390116 L13.3486004,36.1848452 C13.4814659,36.2207806 13.6171384,36.238356 13.7521871,36.238356 C14.0235322,36.238356 14.2928499,36.1671129 14.5319142,36.0280791 C14.7134347,35.9226268 14.869848,35.7823375 14.9941365,35.6175683 L20.5740195,37.1494514 C20.5030643,37.7393252 20.5436101,38.3433222 20.701115,38.9346083 C21.0245458,40.1491929 21.7986589,41.1643283 22.8806082,41.7929622 C23.6015439,42.2117898 24.4015439,42.425676 25.2123041,42.425676 C25.5346433,42.425676 25.858386,42.3905252 26.1797895,42.3222637 C26.5261442,43.3854175 27.2463002,44.3293098 28.2825575,44.9314237 C29.0034932,45.3502514 29.8034932,45.5641375 30.6142534,45.5641375 C30.9358129,45.5641375 31.2587758,45.5291437 31.5792437,45.4613529 C31.9379181,46.564836 32.6777232,47.484876 33.6843509,48.0697283 C34.3638051,48.4645468 35.1139025,48.6746668 35.8767875,48.6978914 L36.155462,48.6977345 Z M47.3484444,46.2235283 C47.6196335,45.750876 47.7988148,45.2498206 47.8934737,44.7413898 L48.1946043,44.9173006 C48.9344094,45.3496237 49.1882885,46.3076391 48.758347,47.0571037 L48.7493021,47.0731098 C48.3215439,47.8189652 47.3694971,48.0767898 46.6273528,47.6476052 L46.555306,47.6060206 L47.3484444,46.2235283 Z M36.9813489,48.5995006 C36.9921092,48.6324545 37.003961,48.6649375 37.015345,48.6977345 L36.155462,48.6977345 C36.4308616,48.6895745 36.7070409,48.6575622 36.9813489,48.5995006 L36.9813489,48.5995006 Z M34.6732008,43.2082514 L36.5445458,39.9469191 C36.8332008,39.4439806 37.358269,39.1624606 37.8978402,39.1624606 C38.1621676,39.1624606 38.4300819,39.2302514 38.6749162,39.3724237 C39.4192437,39.8052175 39.675462,40.7666852 39.2455205,41.5159929 L37.3743314,44.7774822 C37.1659883,45.1404452 36.82977,45.4003098 36.4274308,45.5085868 C36.0249357,45.6171775 35.6048187,45.5613129 35.244117,45.3518206 C34.8834152,45.1421714 34.6253255,44.8038452 34.5175673,44.3989837 C34.409809,43.9941222 34.4648577,43.5712145 34.6732008,43.2082514 L34.6732008,43.2082514 Z M25.6235322,39.2318206 C25.221193,39.3405683 24.8009201,39.2845468 24.4400624,39.0750545 C24.0793606,38.8654052 23.8214269,38.5270791 23.7135127,38.1223745 C23.6057544,37.7175129 23.661115,37.2946052 23.8693021,36.9314852 L25.7406472,33.669996 C25.9488343,33.3070329 26.2852086,33.0473252 26.6875478,32.9388914 C26.8218168,32.9027991 26.9581131,32.8847529 27.0936296,32.8847529 C27.3637271,32.8847529 27.6305497,32.955996 27.8708616,33.0956575 C28.6151891,33.5284514 28.8714074,34.490076 28.4414659,35.2393837 L26.5702768,38.500716 C26.3620897,38.8636791 26.0257154,39.1235437 25.6235322,39.2318206 L25.6235322,39.2318206 Z M31.0253255,42.3701252 C30.6231423,42.478716 30.2028694,42.4230083 29.8420117,42.2133591 C29.0973723,41.7807222 28.8413099,40.8190975 29.2712515,40.0699468 L31.1425965,36.8084575 C31.4312515,36.3055191 31.9563197,36.0239991 32.4958908,36.0239991 C32.7602183,36.0239991 33.0281326,36.0917898 33.2729669,36.2339622 C34.0172943,36.666756 34.2735127,37.6283806 33.8435712,38.3776883 L31.9723821,41.6390206 C31.764039,42.0019837 31.4276647,42.2618483 31.0253255,42.3701252 L31.0253255,42.3701252 Z M41.3415828,48.6977345 C41.0995556,48.6847098 40.8618947,48.6156637 40.6457544,48.4901252 C40.2850526,48.280476 40.0271189,47.9421498 39.9192047,47.5374452 C39.8114464,47.1325837 39.866807,46.709676 40.0749942,46.346556 L41.9463392,43.0852237 C42.2349942,42.5822852 42.7600624,42.3009222 43.2996335,42.3009222 C43.5634932,42.3009222 43.8309396,42.3683991 44.0756179,42.5101006 L44.078269,42.5116698 C44.8215049,42.9449345 45.0770994,43.9056175 44.6474698,44.6544545 L42.7762807,47.9157868 C42.5679376,48.2787498 42.2317193,48.5386145 41.8293801,48.6468914 C41.7287953,48.6740391 41.6271189,48.6909868 41.5255984,48.6977345 L41.3415828,48.6977345 Z M58.3137466,35.1907375 C58.3018947,34.9399745 58.2708616,34.6907806 58.2198674,34.4458237 C59.3156959,34.0852145 60.2290682,33.3410852 60.8137076,32.3220268 C62.1024405,30.0759868 61.3348772,27.1936237 59.1029864,25.8969683 L52.6958129,22.174596 C51.9500819,21.7411745 50.9961637,21.9983714 50.5655984,22.7489345 C50.1348772,23.4994975 50.3904717,24.4590822 51.1363587,24.8923468 L57.5435322,28.614876 C58.2863002,29.0464145 58.5415828,30.0053714 58.1088343,30.7598575 C57.901115,31.122036 57.5656764,31.3808022 57.1644288,31.4889222 C56.7633372,31.5971991 56.344,31.5419622 55.984078,31.3326268 L49.5769045,27.6104114 C48.8311735,27.1773037 47.8774113,27.4341868 47.446846,28.1847498 C47.0161248,28.9353129 47.2717193,29.8948975 48.0176062,30.3281622 L54.4247797,34.0505345 C55.1673918,34.4820729 55.4228304,35.4410298 55.0006862,36.1769991 C54.998347,36.1807652 54.9921092,36.1917498 54.9899259,36.195516 C54.869692,36.4050083 54.7061053,36.5785652 54.5124211,36.7097529 L54.5052476,36.7125775 C54.3992047,36.7549468 54.3009591,36.8083006 54.2098869,36.8698145 C54.1563977,36.8908422 54.1018168,36.9096729 54.0455205,36.9247375 C53.6444288,37.0331714 53.2252476,36.9774637 52.8653255,36.7684422 L46.458152,33.0460698 C45.7124211,32.6128052 44.7585029,32.8696883 44.3279376,33.6204083 C43.8973723,34.3709714 44.1529669,35.330556 44.8986979,35.7638206 L51.3058713,39.4863498 C52.0486394,39.9178883 52.303922,40.8768452 51.8752281,41.6242698 C51.6671969,41.987076 51.3309786,42.246156 50.9287953,42.3539622 C50.526768,42.4619252 50.1071189,42.4055898 49.7471969,42.1953129 L45.6394386,39.7947037 C45.6389708,39.7945468 45.6386589,39.7943898 45.638191,39.794076 C45.6374113,39.7936052 45.6367875,39.7931345 45.6360078,39.7926637 L45.6358519,39.7926637 C44.5989708,39.190236 43.4261053,39.0345683 42.3374503,39.2649314 C41.9914074,38.2011498 41.2709396,37.2566298 40.2340585,36.6542022 L40.2339025,36.6542022 C39.1970214,36.0517745 38.0241559,35.8962637 36.935501,36.1264698 C36.5894581,35.0628452 35.8689903,34.1183252 34.8321092,33.5158975 C33.7950721,32.9134698 32.6222066,32.7578022 31.5335517,32.9880083 C31.1873528,31.9242268 30.4670409,30.9798637 29.4301598,30.377436 C28.3478986,29.7486452 27.0872359,29.581836 25.8802183,29.9072945 C24.6730448,30.232596 23.6642339,31.0117191 23.0395166,32.1007652 L21.8140975,34.2368022 L15.9129669,32.6167283 L21.3970994,12.0213591 L31.7980351,8.30181138 C32.8283665,7.933356 33.9550721,8.04979292 34.889653,8.62067908 L38.9769825,11.1179529 L35.815345,16.2496514 C34.5627914,18.2825898 34.8686004,20.8768422 36.5590487,22.5587437 C37.5418168,23.5363745 38.8303938,24.0250329 40.1194386,24.0250329 C41.4134737,24.024876 42.7076647,23.5322945 43.6912125,22.5477591 L51.5591267,14.6721037 C52.169809,14.0607314 52.17246,13.0674083 51.5650526,12.4528975 C50.9574893,11.8383868 49.9701988,11.835876 49.3596725,12.4470914 L41.4917583,20.3225898 C40.7376062,21.0778606 39.5084444,21.0794298 38.7519532,20.3269837 C38.1027524,19.6807745 37.9853255,18.6843129 38.4662612,17.9034637 L42.7429084,10.9618145 C43.6227524,9.53381446 44.9788538,8.45339908 46.5620117,7.91891908 L49.4831813,6.93312831 C50.6295361,6.54599908 51.8914464,6.66588831 52.9456374,7.26141138 L58.2504327,10.2583283 L64.2569825,32.8155498 L58.3137466,35.1907375 Z" id="Fill-26"></path>
                        </g>
                    </g>
                </g>
            </g>
        </g>
    </g>
</svg>