<?xml version="1.0" encoding="UTF-8"?>
<svg width="58px" height="50px" viewBox="0 0 58 50" version="1.1" xmlns="http://www.w3.org/2000/svg" xmlns:xlink="http://www.w3.org/1999/xlink">
    <!-- Generator: Sketch 46.2 (44496) - http://www.bohemiancoding.com/sketch -->
    <title>icon-landing-2</title>
    <desc>Created with Sketch.</desc>
    <defs></defs>
    <g id="MAH" stroke="none" stroke-width="1" fill="none" fill-rule="evenodd">
        <g id="L&amp;F-Landing-Concesionaria" transform="translate(-551.000000, -521.000000)">
            <g id="icon-landing-2" transform="translate(551.000000, 521.000000)">
                <polygon id="Fill-11" fill="#E40019" points="3.25233645 10.326087 58 10.326087 58 0 3.25233645 0"></polygon>
                <g id="Group-6" transform="translate(0.000000, 2.173913)" fill="#231F20">
                    <path d="M2.18091809,12.1958329 L53.6508576,12.1958329 L53.6508576,2.19049108 L2.18091809,2.19049108 L2.18091809,12.1958329 Z M53.6508576,45.6350483 L2.18091809,45.6350483 L2.18091809,42.7841241 L45.7391683,42.7841241 C46.3413743,42.7841241 46.8296274,42.2937279 46.8296274,41.6888786 C46.8296274,41.0840292 46.3413743,40.593633 45.7391683,40.593633 L2.18091809,40.593633 L2.18091809,14.386324 L53.6508576,14.386324 L53.6508576,45.6350483 Z M54.7413167,0 L1.09045904,0 C0.488253037,0 0,0.49039619 0,1.09524554 L0,46.7308414 C0,47.3356908 0.488253037,47.826087 1.09045904,47.826087 L54.7413167,47.826087 C55.3435227,47.826087 55.8317757,47.3356908 55.8317757,46.7308414 L55.8317757,1.09524554 C55.8317757,0.49039619 55.3435227,0 54.7413167,0 L54.7413167,0 Z" id="Fill-1"></path>
                    <path d="M36.8807561,8.63986684 L48.7641037,8.63986684 L48.7641037,6.03404621 L36.8807561,6.03404621 L36.8807561,8.63986684 Z M49.8586874,3.80434783 L35.7861725,3.80434783 C35.1816886,3.80434783 34.6915888,4.30352155 34.6915888,4.91919702 L34.6915888,9.75471603 C34.6915888,10.3698341 35.1816886,10.8695652 35.7861725,10.8695652 L49.8586874,10.8695652 C50.4631712,10.8695652 50.953271,10.3698341 50.953271,9.75471603 L50.953271,4.91919702 C50.953271,4.30352155 50.4631712,3.80434783 49.8586874,3.80434783 L49.8586874,3.80434783 Z" id="Fill-3"></path>
                    <path d="M10.8205234,6.85184248 C10.8061589,6.78347552 10.7844766,6.71497264 10.7575093,6.64850853 C10.7305421,6.5832677 10.6977477,6.52060931 10.6580421,6.46162072 C10.6188785,6.4016807 10.5733458,6.34649782 10.5234766,6.29661577 C10.4732009,6.24659779 10.4181822,6.20038553 10.3584206,6.16069736 C10.3001495,6.12128102 10.2371355,6.08893244 10.1720888,6.061341 C10.1058224,6.03429323 10.0376589,6.01254629 9.9682757,5.99976996 C9.82856075,5.97109117 9.68559346,5.97109117 9.54533645,5.99976996 C9.47595327,6.01254629 9.40765421,6.03429323 9.34260748,6.061341 C9.27634112,6.08893244 9.21386916,6.12128102 9.15519159,6.16069736 C9.09529439,6.20038553 9.0402757,6.24659779 8.99054206,6.29661577 C8.94080841,6.34649782 8.8952757,6.4016807 8.85611215,6.46162072 C8.8169486,6.52060931 8.78361215,6.5832677 8.75596729,6.64850853 C8.729,6.71497264 8.70731776,6.78347552 8.69457944,6.85184248 C8.67926636,6.92252005 8.6728972,6.99469273 8.6728972,7.0653703 C8.6728972,7.13591195 8.67926636,7.20767688 8.69457944,7.27713118 C8.70731776,7.34672141 8.729,7.41522429 8.75596729,7.48046513 C8.78361215,7.54692923 8.8169486,7.60958762 8.85611215,7.66844029 C8.8952757,7.72851623 8.94080841,7.7836991 8.99054206,7.83412483 C9.0402757,7.88400689 9.09529439,7.92967547 9.15519159,7.9689559 C9.21386916,8.00769264 9.27634112,8.04167224 9.34260748,8.06885593 C9.40765421,8.09590369 9.47595327,8.11765064 9.54533645,8.13042697 C9.61458411,8.1446984 9.68667757,8.15217391 9.75700935,8.15217391 C9.82747664,8.15217391 9.89889252,8.1446984 9.9682757,8.13042697 C10.0376589,8.11765064 10.1058224,8.09590369 10.1710047,8.06885593 C10.2371355,8.04167224 10.3001495,8.00769264 10.3584206,7.9689559 C10.4181822,7.92967547 10.4732009,7.88400689 10.5234766,7.83412483 C10.5733458,7.7836991 10.6188785,7.72851623 10.6580421,7.66844029 C10.6966636,7.60958762 10.7305421,7.54692923 10.7575093,7.48046513 C10.7844766,7.41522429 10.8061589,7.34672141 10.8205234,7.27713118 C10.8342103,7.20767688 10.8411215,7.13591195 10.8411215,7.0653703 C10.8411215,6.99469273 10.8342103,6.92252005 10.8205234,6.85184248" id="Fill-4"></path>
                    <path d="M29.8003678,5.97826087 L14.6482304,5.97826087 C14.0425068,5.97826087 13.5514019,6.46494565 13.5514019,7.06521739 C13.5514019,7.66548913 14.0425068,8.15217391 14.6482304,8.15217391 L29.8003678,8.15217391 C30.4060913,8.15217391 30.8971963,7.66548913 30.8971963,7.06521739 C30.8971963,6.46494565 30.4060913,5.97826087 29.8003678,5.97826087" id="Fill-5"></path>
                    <path d="M51.4745779,41.6351012 C51.4608807,41.5666326 51.4402671,41.498164 51.413144,41.431869 C51.3861564,41.3666607 51.3522525,41.3040337 51.3130596,41.2450746 C51.2733242,41.1851645 51.2288422,41.1298734 51.1774438,41.0800163 C51.1276729,41.0301591 51.0726129,40.98397 51.0137556,40.9441658 C50.9539491,40.904905 50.8914303,40.8714858 50.8261991,40.844995 C50.7611035,40.8179607 50.6927532,40.7960888 50.623318,40.7823679 C50.4834981,40.7537035 50.3387962,40.7537035 50.1989763,40.7823679 C50.1296767,40.7960888 50.0613264,40.8179607 49.9960952,40.844995 C49.9309997,40.8714858 49.8673959,40.904905 49.8085386,40.9441658 C49.7487321,40.98397 49.6936721,41.0301591 49.6437655,41.0800163 C49.5934521,41.1298734 49.5478852,41.1851645 49.5092347,41.2450746 C49.4700418,41.3040337 49.4361379,41.3666607 49.4091503,41.431869 C49.3821628,41.498164 49.3614136,41.5666326 49.3477164,41.6351012 C49.3333411,41.7057435 49.3271028,41.7778801 49.3271028,41.8485223 C49.3271028,41.9190287 49.3333411,41.9906219 49.3477164,42.0601773 C49.3614136,42.1297328 49.3821628,42.1982014 49.4091503,42.2634096 C49.4361379,42.3297047 49.4700418,42.3928751 49.5092347,42.4512908 C49.5478852,42.5112009 49.5934521,42.566492 49.6437655,42.6168925 C49.6936721,42.6667496 49.7487321,42.7123954 49.8085386,42.7516562 C49.8684808,42.7903736 49.9315421,42.8243362 49.9960952,42.8513704 C50.0613264,42.8785405 50.1296767,42.8991898 50.1989763,42.9129107 C50.2694965,42.9273108 50.3398811,42.9347826 50.4109437,42.9347826 C50.4824132,42.9347826 50.5529334,42.9273108 50.623318,42.9129107 C50.6927532,42.8991898 50.7611035,42.8785405 50.8261991,42.8513704 C50.8914303,42.8243362 50.9544916,42.7903736 51.0137556,42.7516562 C51.0726129,42.7123954 51.1276729,42.6667496 51.1774438,42.6168925 C51.2288422,42.566492 51.2733242,42.5112009 51.3130596,42.4512908 C51.3522525,42.3928751 51.3861564,42.3297047 51.413144,42.2634096 C51.4402671,42.1982014 51.4608807,42.1297328 51.4745779,42.0601773 C51.4889532,41.9906219 51.4953271,41.9190287 51.4953271,41.8485223 C51.4953271,41.7778801 51.4889532,41.7057435 51.4745779,41.6351012" id="Fill-6"></path>
                    <path d="M33.6295335,33.6652324 L46.5947656,33.6652324 L46.5947656,29.9217241 L33.6295335,29.9217241 L33.6295335,33.6652324 Z M47.6899062,27.7173913 L32.5343929,27.7173913 C31.9296015,27.7173913 31.4392523,28.2108863 31.4392523,28.8195577 L31.4392523,34.7673988 C31.4392523,35.3766213 31.9296015,35.8695652 32.5343929,35.8695652 L47.6899062,35.8695652 C48.2946975,35.8695652 48.7850467,35.3766213 48.7850467,34.7673988 L48.7850467,28.8195577 C48.7850467,28.2103352 48.2946975,27.7173913 47.6899062,27.7173913 L47.6899062,27.7173913 Z" id="Fill-7"></path>
                    <path d="M8.13802775,34.7523379 L26.553561,34.7523379 L26.553561,31.0085317 L8.13802775,31.0085317 L8.13802775,34.7523379 Z M27.6412665,28.8043478 L7.05032228,28.8043478 C6.44963694,28.8043478 5.96261682,29.2978095 5.96261682,29.9064397 L5.96261682,35.8544298 C5.96261682,36.4630601 6.44963694,36.9565217 7.05032228,36.9565217 L27.6412665,36.9565217 C28.2419518,36.9565217 28.728972,36.4630601 28.728972,35.8544298 L28.728972,29.9064397 C28.728972,29.2978095 28.2419518,28.8043478 27.6412665,28.8043478 L27.6412665,28.8043478 Z" id="Fill-8"></path>
                    <path d="M8.15289794,23.3392944 L21.1181301,23.3392944 L21.1181301,19.5954882 L8.15289794,19.5954882 L8.15289794,23.3392944 Z M22.2132707,17.3913043 L7.05775738,17.3913043 C6.45296601,17.3913043 5.96261682,17.884766 5.96261682,18.4933963 L5.96261682,24.4413863 C5.96261682,25.0500166 6.45296601,25.5434783 7.05775738,25.5434783 L22.2132707,25.5434783 C22.818062,25.5434783 23.3084112,25.0500166 23.3084112,24.4413863 L23.3084112,18.4933963 C23.3084112,17.884766 22.818062,17.3913043 22.2132707,17.3913043 L22.2132707,17.3913043 Z" id="Fill-9"></path>
                    <path d="M28.1941025,23.3392944 L46.6096358,23.3392944 L46.6096358,19.5954882 L28.1941025,19.5954882 L28.1941025,23.3392944 Z M47.6973413,17.3913043 L27.1063971,17.3913043 C26.5057117,17.3913043 26.0186916,17.884766 26.0186916,18.4933963 L26.0186916,24.4413863 C26.0186916,25.0500166 26.5057117,25.5434783 27.1063971,25.5434783 L47.6973413,25.5434783 C48.2974828,25.5434783 48.7850467,25.0500166 48.7850467,24.4413863 L48.7850467,18.4933963 C48.7850467,17.884766 48.2974828,17.3913043 47.6973413,17.3913043 L47.6973413,17.3913043 Z" id="Fill-10"></path>
                </g>
            </g>
        </g>
    </g>
</svg>