<?xml version="1.0" encoding="UTF-8"?>
<svg width="39px" height="35px" viewBox="0 0 39 35" version="1.1" xmlns="http://www.w3.org/2000/svg" xmlns:xlink="http://www.w3.org/1999/xlink">
    <!-- Generator: sketchtool 51.2 (57519) - http://www.bohemiancoding.com/sketch -->
    <title>A7640EF2-3FD6-4572-B7AB-9AC595178965</title>
    <desc>Created with sketchtool.</desc>
    <defs></defs>
    <g id="MAH" stroke="none" stroke-width="1" fill="none" fill-rule="evenodd">
        <g id="MAH-Home-Modal-Tipo-de-vendedor" transform="translate(-510.000000, -481.000000)" fill-rule="nonzero">
            <g id="icon-auto" transform="translate(510.000000, 481.000000)">
                <circle id="Oval" fill="#E40019" cx="3.7295082" cy="23.5245902" r="1.72131148"></circle>
                <circle id="Oval" fill="#E40019" cx="33.2786885" cy="23.2377049" r="1.72131148"></circle>
                <polygon id="Shape" fill="#E40019" points="5.89282009 10.9016393 2.86885246 15.6141744 3.77905167 16.8878325 6.9083316 15.9887797 8.75129695 17.7868852 30.2650965 17.419772 34.0638618 15.9887797 36.147541 15.4643322 33.800581 10.9016393"></polygon>
                <path d="M35.6420178,13.8890079 C36.5880667,13.4465395 36.9860079,12.7415899 37.1061411,12.1491322 C37.8644819,11.9991429 38.442623,11.3316906 38.442623,10.5292479 C38.442623,9.61431326 37.6992988,8.8718663 36.7832832,8.8718663 L36.2802254,8.8718663 C35.3642098,8.8718663 34.6208856,9.61431326 34.6208856,10.5292479 C34.6208856,11.2941933 35.1464684,11.9391472 35.8522509,12.1266338 C35.8447426,12.1491322 35.8372342,12.1641311 35.8222176,12.1866295 C35.6795594,12.4716092 35.4017514,12.6965931 34.9963019,12.8615813 C34.7860688,12.5541033 34.6208856,12.3216199 34.5157691,12.1791301 C34.4707191,11.451682 34.2529777,8.88686522 33.2393539,6.2845511 C31.647589,2.17484465 28.8469839,0 25.1603964,0 L16.6309394,0 C16.3005731,0 16.0302734,0.269980716 16.0302734,0.599957146 C16.0302734,0.929933576 16.3005731,1.19991429 16.6309394,1.19991429 L25.1603964,1.19991429 C28.3514344,1.19991429 30.6940318,3.04478252 32.1131051,6.68952218 C32.9089876,8.72937647 33.1867956,10.7992286 33.2768955,11.7966574 L5.15821913,11.7966574 C5.24831903,10.7917292 5.53363537,8.72937647 6.32200948,6.68952218 C7.74108286,3.04478252 10.0836802,1.19991429 13.2747182,1.19991429 L14.2282755,1.19991429 C14.5586418,1.19991429 14.8289415,0.929933576 14.8289415,0.599957146 C14.8289415,0.269980716 14.5586418,0 14.2282755,0 L13.2747182,0 C9.58062244,0 6.78752561,2.17484465 5.19576076,6.2845511 C4.18213691,8.88686522 3.96439549,11.451682 3.91934554,12.1791301 C3.814229,12.3216199 3.64153753,12.5466038 3.43881276,12.8615813 C3.03336322,12.7040926 2.7555552,12.4791086 2.61289703,12.1866295 C2.6053887,12.1641311 2.59037205,12.1491322 2.58286373,12.1266338 C3.28864626,11.9391472 3.814229,11.2941933 3.814229,10.5292479 C3.814229,9.61431326 3.07090484,8.8718663 2.15488922,8.8718663 L1.65183145,8.8718663 C0.743324155,8.8718663 0,9.61431326 0,10.5292479 C0,11.3316906 0.578141009,12.0066424 1.33648181,12.1491322 C1.45661501,12.7415899 1.85455622,13.4390401 2.80060515,13.8890079 C2.55283043,14.3164774 2.29003906,14.8189415 2.02724769,15.3739019 C2.02724769,15.3814013 2.02724769,15.3814013 2.01973937,15.3889008 C1.9671811,15.4938933 1.92213115,15.6063853 1.86957287,15.7188772 C0.931032275,17.8187272 -0.0976082223,21.1484894 0.292824667,25.0632098 L0.292824667,31.9027212 C0.292824667,33.6125991 1.68186475,35 3.39376281,35 C5.10566086,35 6.49470095,33.6125991 6.49470095,31.9027212 L6.49470095,29.330405 L14.1381756,29.330405 L14.1381756,30.2378402 C14.1381756,30.5678166 14.4084753,30.8377973 14.7388416,30.8377973 L23.6737481,30.8377973 C24.0041144,30.8377973 24.2744141,30.5678166 24.2744141,30.2378402 L24.2744141,29.330405 L31.9178887,29.330405 L31.9178887,31.9027212 C31.9178887,33.6125991 33.3069288,35 35.0188268,35 C36.7307249,35 38.119765,33.6125991 38.119765,31.9027212 L38.119765,25.0482108 C38.5101979,21.1334905 37.4740491,17.8112278 36.5430168,15.7038783 C36.2577004,15.0139276 35.9348425,14.3989715 35.6420178,13.8890079 Z M35.8297259,10.5292479 C35.8297259,10.2817656 36.0324507,10.0717806 36.2877337,10.0717806 L36.7907915,10.0717806 C37.0385662,10.0717806 37.2487993,10.2742661 37.2487993,10.5292479 C37.2487993,10.7767302 37.0460745,10.9867152 36.7907915,10.9867152 L36.2877337,10.9867152 C36.0324507,10.9792158 35.8297259,10.7767302 35.8297259,10.5292479 Z M2.16239754,10.9792158 L1.65933978,10.9792158 C1.41156506,10.9792158 1.20133197,10.7767302 1.20133197,10.5217484 C1.20133197,10.2742661 1.40405674,10.0642811 1.65933978,10.0642811 L2.16239754,10.0642811 C2.41017226,10.0642811 2.62040535,10.2667667 2.62040535,10.5217484 C2.62040535,10.7767302 2.41017226,10.9792158 2.16239754,10.9792158 Z M4.81283619,12.9965717 L33.6372951,12.9965717 C33.9151031,13.3715449 34.5007524,14.2264838 35.1164351,15.4488965 C34.7785605,15.6813799 34.4256692,15.8913649 34.0577613,16.071352 C33.5997535,15.7713735 33.0591541,15.5988858 32.4735047,15.5988858 C31.3847976,15.5988858 30.4387487,16.1988429 29.9507076,17.0912792 C29.8981493,17.0912792 29.8455911,17.0912792 29.7930328,17.0912792 L8.65709849,17.0912792 C8.60454022,17.0912792 8.55198194,17.0912792 8.49942367,17.0912792 C8.01138256,16.2063424 7.06533363,15.5988858 5.97662654,15.5988858 C5.3909772,15.5988858 4.85037782,15.7713735 4.39237001,16.071352 C4.02446209,15.8838654 3.67157082,15.6738804 3.33369621,15.441397 C3.94187052,14.2264838 4.52751985,13.3715449 4.81283619,12.9965717 Z M34.1478612,18.4711806 C34.1478612,19.3936147 33.3970287,20.1510606 32.4659964,20.1510606 C31.5349641,20.1510606 30.7841317,19.4011142 30.7841317,18.4711806 C30.7841317,17.5487465 31.5349641,16.7913006 32.4659964,16.7913006 C33.3970287,16.7913006 34.1478612,17.5487465 34.1478612,18.4711806 Z M7.65098297,18.4711806 C7.65098297,19.3936147 6.90015049,20.1510606 5.96911821,20.1510606 C5.03808594,20.1510606 4.28725346,19.4011142 4.28725346,18.4711806 C4.28725346,17.5487465 5.03808594,16.7913006 5.96911821,16.7913006 C6.90015049,16.7988001 7.65098297,17.5487465 7.65098297,18.4711806 Z M1.44346712,22.4683951 C1.46346712,22.4983951 1.46346712,22.5183951 1.46346712,22.5183951 L1.44346712,22.5283951 C1.43346712,22.5083951 1.43346712,22.4883951 1.44346712,22.4683951 Z M5.30838563,31.9027212 C5.30838563,32.9526462 4.4524366,33.8000857 3.40877946,33.8000857 C2.36512231,33.8000857 1.50166496,32.9526462 1.50166496,31.9027212 L1.50166496,27.7855153 C1.50917328,27.7930148 1.50917328,27.7930148 1.51668161,27.8005142 C2.20744749,28.5579601 3.15349641,29.0754232 4.15961194,29.2554103 C4.5425365,29.3229055 4.91795274,29.330405 5.30838563,29.330405 L5.30838563,31.9027212 Z M23.0880987,29.6453825 L15.3545242,29.6453825 L15.3545242,27.8230126 L23.0880987,27.8230126 L23.0880987,29.6453825 Z M35.0413518,33.8075852 C33.9901863,33.8075852 33.1417456,32.9526462 33.1417456,31.9102207 L33.1417456,29.3379044 C33.7123783,29.3379044 34.2755027,29.3004071 34.8311187,29.1354189 C35.3191598,28.9854296 35.784676,28.7604457 36.1976338,28.4604671 C36.4604252,28.2729805 36.7081999,28.0479966 36.9334497,27.8080137 C36.940958,27.8005142 36.940958,27.8005142 36.9484663,27.7930148 L36.9484663,31.9027212 C36.940958,32.9526462 36.0925173,33.8075852 35.0413518,33.8075852 Z M36.9484663,24.9657167 C36.7607582,26.7730876 35.2590932,28.1379901 33.4420786,28.1379901 L32.5335713,28.1379901 L24.2894307,28.1379901 L24.2894307,27.230555 C24.2894307,26.9005785 24.019131,26.6305978 23.6887647,26.6305978 L14.7538582,26.6305978 C14.4234919,26.6305978 14.1531922,26.9005785 14.1531922,27.230555 L14.1531922,28.1379901 L5.90905161,28.1379901 L5.00054431,28.1379901 C3.18352971,28.1379901 1.68186475,26.7730876 1.49415663,24.9657167 C1.45661501,24.6207414 1.43409004,24.2832655 1.42658171,23.9457896 C1.7869813,24.1482751 2.26751409,24.3582601 2.9057217,24.5607457 C3.26612129,25.0557103 3.85177062,25.3781873 4.5125032,25.3781873 C4.85788614,25.3781873 5.17323578,25.2881937 5.45855213,25.1382044 C7.46327485,25.4606814 9.97856365,25.6256696 12.9443519,25.6256696 L25.498271,25.6256696 C28.4640593,25.6256696 30.9718398,25.4606814 32.9840708,25.1382044 C33.2693872,25.2881937 33.5847368,25.3781873 33.9301197,25.3781873 C34.5908523,25.3781873 35.1765017,25.0557103 35.5369013,24.5607457 C36.1751089,24.3582601 36.6556416,24.1482751 37.0160412,23.9457896 C37.0010246,24.2832655 36.9784996,24.6207414 36.9484663,24.9657167 Z M3.7241291,23.3908292 C3.7241291,22.9558603 4.07702036,22.6033855 4.5125032,22.6033855 C4.94798604,22.6033855 5.30087731,22.9558603 5.30087731,23.3908292 C5.30087731,23.8257982 4.94798604,24.178273 4.5125032,24.178273 C4.07702036,24.178273 3.7241291,23.8257982 3.7241291,23.3908292 Z M33.1417456,23.3908292 C33.1417456,22.9558603 33.4946369,22.6033855 33.9301197,22.6033855 C34.3656026,22.6033855 34.7184939,22.9558603 34.7184939,23.3908292 C34.7184939,23.8257982 34.3656026,24.178273 33.9301197,24.178273 C33.4946369,24.178273 33.1417456,23.8257982 33.1417456,23.3908292 Z M37.0160079,22.5283951 L36.9860079,22.5183951 C36.9860079,22.5183951 36.9860079,22.4983951 37.0060079,22.4683951 C37.0160079,22.4883951 37.0160079,22.5083951 37.0160079,22.5283951 Z M35.9048092,23.1508464 C35.784676,22.1684165 34.9437436,21.4034712 33.9301197,21.4034712 C32.8339043,21.4034712 31.9404137,22.2959074 31.9404137,23.3908292 C31.9404137,23.6233126 31.9854636,23.855796 32.0605469,24.065781 C30.2510406,24.3057639 28.0511014,24.4257553 25.5057793,24.4257553 L12.9443519,24.4257553 C10.3990298,24.4257553 8.19909068,24.3057639 6.3895844,24.065781 C6.46466765,23.855796 6.5097176,23.6308121 6.5097176,23.3908292 C6.5097176,22.2959074 5.61622695,21.4034712 4.52001153,21.4034712 C3.50638768,21.4034712 2.65794698,22.1684165 2.54532211,23.1508464 C1.73442303,22.805871 1.48664831,22.5208914 1.44910669,22.4683951 C1.57674821,20.076066 2.20744749,18.0362117 2.83063845,16.5513178 C3.05588819,16.701307 3.28864626,16.8437969 3.52891265,16.9712878 C3.25861296,17.4062567 3.10093814,17.9237197 3.10093814,18.4786801 C3.10093814,20.0610671 4.39237001,21.3584744 5.98413486,21.3584744 C7.57589972,21.3584744 8.86733158,20.0685665 8.86733158,18.4786801 C8.86733158,18.4186844 8.86733158,18.3586887 8.85982326,18.298693 L29.6053247,18.298693 C29.5978163,18.3586887 29.5978163,18.4186844 29.5978163,18.4786801 C29.5978163,20.0610671 30.8892482,21.3584744 32.4810131,21.3584744 C34.0727779,21.3584744 35.3642098,20.0685665 35.3642098,18.4786801 C35.3642098,17.9312192 35.206535,17.4137562 34.9362353,16.9712878 C35.1765017,16.8437969 35.4017514,16.701307 35.6345095,16.5513178 C36.3027504,18.1412042 36.9034164,20.1585601 37.0235496,22.4608957 C36.9709913,22.5133919 36.7307249,22.805871 35.9048092,23.1508464 Z" id="Shape" fill="#000000"></path>
                <path d="M27.5168756,20.7879299 L21.0298939,20.7879299 C20.7757956,20.0420283 20.0583414,19.5081967 19.2213115,19.5081967 C18.3768081,19.5081967 17.6593539,20.049341 17.412729,20.7879299 L10.9257473,20.7879299 C10.5969142,20.7879299 10.3278689,21.0511893 10.3278689,21.3729508 C10.3278689,21.6947123 10.5969142,21.9579717 10.9257473,21.9579717 L17.412729,21.9579717 C17.6668274,22.7038734 18.3842816,23.2377049 19.2213115,23.2377049 C20.0583414,23.2377049 20.783269,22.6965606 21.0298939,21.9579717 L27.5168756,21.9579717 C27.8457088,21.9579717 28.1147541,21.6947123 28.1147541,21.3729508 C28.1147541,21.0511893 27.8457088,20.7879299 27.5168756,20.7879299 Z M19.2213115,22.0676631 C18.825217,22.0676631 18.5113308,21.7532144 18.5113308,21.3729508 C18.5113308,20.9926872 18.8326905,20.6782385 19.2213115,20.6782385 C19.617406,20.6782385 19.9312922,20.9926872 19.9312922,21.3729508 C19.9312922,21.7532144 19.617406,22.0676631 19.2213115,22.0676631 Z" id="Shape" fill="#000000"></path>
                <path d="M31.8350753,9.62233588 C31.6387231,8.65957734 31.3744028,7.75561322 31.0496665,6.94719002 C30.483266,5.52877477 29.7582733,4.41168089 28.8822404,3.6400042 C27.8627194,2.73604008 26.6468463,2.29508197 25.1742049,2.29508197 L23.6864594,2.29508197 C23.3541711,2.29508197 23.0822988,2.55965683 23.0822988,2.88302611 C23.0822988,3.20639539 23.3541711,3.47097026 23.6864594,3.47097026 L25.1742049,3.47097026 C26.337214,3.47097026 27.2812149,3.80903814 28.0666236,4.50722181 C28.7991684,5.15396037 29.425985,6.12406821 29.9244174,7.37344952 C30.1434256,7.92464716 30.3322258,8.51994061 30.490818,9.15198056 L13.8008819,9.15198056 C13.4685936,9.15198056 13.1967213,9.41655543 13.1967213,9.73992471 C13.1967213,10.063294 13.4685936,10.3278689 13.8008819,10.3278689 L31.2460187,10.3278689 C31.4272669,10.3278689 31.6009631,10.2470265 31.7142432,10.1147391 C31.8199713,9.97510237 31.8652833,9.79871912 31.8350753,9.62233588 Z" id="Shape" fill="#000000"></path>
                <path d="M21.1746412,2.29508197 L13.2044161,2.29508197 C11.7600466,2.29508197 10.5701257,2.72908785 9.56729924,3.61181169 C8.7066646,4.36948298 7.98822177,5.46553174 7.42693831,6.85582177 C7.09016823,7.69440942 6.81326839,8.62862547 6.61120634,9.62904582 C6.57378745,9.80559058 6.61869012,9.98213535 6.73843059,10.1145439 C6.85068729,10.2543085 7.02281421,10.3278689 7.20242492,10.3278689 L11.3933414,10.3278689 C11.7226277,10.3278689 11.9920438,10.0630517 11.9920438,9.7393863 C11.9920438,9.41572089 11.7226277,9.15090374 11.3933414,9.15090374 L7.95080287,9.15090374 C8.11544602,8.48150483 8.31750806,7.85624212 8.54950523,7.28247163 C9.04343467,6.05401429 9.65710459,5.1124422 10.3830312,4.47982346 C11.1538605,3.79571248 12.0893329,3.46469105 13.2268674,3.46469105 L21.2045763,3.46469105 C21.5338626,3.46469105 21.8032787,3.1998739 21.8032787,2.87620849 C21.7733436,2.55989912 21.5039275,2.29508197 21.1746412,2.29508197 Z" id="Shape" fill="#000000"></path>
            </g>
        </g>
    </g>
</svg>