<?xml version="1.0" encoding="UTF-8" standalone="no"?>
<svg width="16px" height="22px" viewBox="0 0 16 22" version="1.1" xmlns="http://www.w3.org/2000/svg" xmlns:xlink="http://www.w3.org/1999/xlink">
    <!-- Generator: Sketch 46.2 (44496) - http://www.bohemiancoding.com/sketch -->
    <title>Page 1</title>
    <desc>Created with Sketch.</desc>
    <defs></defs>
    <g id="MAH" stroke="none" stroke-width="1" fill="none" fill-rule="evenodd">
        <g id="L&amp;F-Panel-de-control---Consecionaria---Mis-anuncios" transform="translate(-1329.000000, -359.000000)" fill="#E40019">
            <g id="Group" transform="translate(442.000000, 206.000000)">
                <path d="M895.921491,170.16043 L897.286362,170.16043 L897.286362,159.190461 L895.921491,159.190461 L895.921491,170.16043 Z M894.555448,154.365926 C894.434088,154.365926 894.312727,154.381755 894.191366,154.41107 C894.070005,154.441556 893.963887,154.495495 893.873013,154.570539 C893.781553,154.646756 893.690679,154.722973 893.599805,154.798604 C893.508931,154.874234 893.432714,154.97273 893.372326,155.094091 L895.739157,155.094091 C895.678183,154.97273 895.609588,154.874234 895.534544,154.798604 C895.458327,154.722973 895.366866,154.654378 895.261335,154.593404 C895.154045,154.53243 895.040892,154.479665 894.919531,154.433935 C894.79817,154.388204 894.676809,154.365926 894.555448,154.365926 L894.555448,154.365926 Z M891.824535,170.16043 L893.190578,170.16043 L893.190578,159.190461 L891.824535,159.190461 L891.824535,170.16043 Z M900.063005,157.77986 L900.063005,172.208908 C900.063005,172.299196 900.04014,172.390656 899.994996,172.481531 C899.949266,172.572991 899.895914,172.648622 899.835527,172.709009 C899.774553,172.770569 899.705958,172.815713 899.630913,172.845613 C899.554696,172.876686 899.455614,172.891343 899.33484,172.891343 L889.776057,172.891343 C889.685183,172.891343 889.594309,172.876686 889.503435,172.845613 C889.411974,172.815713 889.335757,172.770569 889.27537,172.709009 C889.214397,172.648622 889.168666,172.572991 889.138766,172.481531 C889.108865,172.390656 889.093036,172.299196 889.093036,172.208908 L889.093036,157.77986 L887.682435,157.77986 L887.682435,172.208908 C887.682435,172.512017 887.743409,172.785226 887.86477,173.027361 C887.985544,173.270669 888.137392,173.483491 888.319726,173.665239 C888.502061,173.847573 888.71371,173.991799 888.957018,174.097917 C889.199739,174.203448 889.472948,174.2568 889.776057,174.2568 L899.33484,174.2568 C899.637949,174.2568 899.910571,174.203448 900.154465,174.097917 C900.397187,173.991799 900.616458,173.847573 900.814035,173.665239 C901.011027,173.483491 901.162288,173.270669 901.269579,173.027361 C901.375696,172.785226 901.428462,172.512017 901.428462,172.208908 L901.428462,157.77986 L900.063005,157.77986 Z M897.196074,155.094091 L902.111483,155.094091 L902.111483,156.459548 L887,156.459548 L887,155.094091 L891.915996,155.094091 C891.975797,154.790982 892.090122,154.510152 892.257213,154.252186 C892.423132,153.994221 892.628331,153.773778 892.871639,153.59203 C893.114361,153.409696 893.379362,153.266056 893.667814,153.159938 C893.955679,153.053821 894.251753,152.999883 894.555448,152.999883 C894.889044,152.999883 895.199775,153.053821 895.488813,153.159938 C895.776679,153.266056 896.034644,153.409696 896.262709,153.59203 C896.490187,153.773778 896.686593,153.994221 896.85427,154.252186 C897.020775,154.510152 897.134514,154.790982 897.196074,155.094091 L897.196074,155.094091 Z" id="Page-1"></path>
            </g>
        </g>
    </g>
</svg>