<?xml version="1.0" encoding="UTF-8"?>
<svg width="14px" height="11px" viewBox="0 0 14 11" version="1.1" xmlns="http://www.w3.org/2000/svg" xmlns:xlink="http://www.w3.org/1999/xlink">
    <!-- Generator: Sketch 46.2 (44496) - http://www.bohemiancoding.com/sketch -->
    <title>icon-envelop-red</title>
    <desc>Created with Sketch.</desc>
    <defs></defs>
    <g id="MAH" stroke="none" stroke-width="1" fill="none" fill-rule="evenodd">
        <g id="L&amp;F-Panel-de-control---Concesionaria---Bandeja-de-entrada" transform="translate(-1190.000000, -353.000000)" fill="#E40019">
            <g id="Group-4" transform="translate(1190.000000, 353.000000)">
                <path d="M12.3501299,2.76658005 L12.3501299,1.3833655 L6.8502054,4.82493504 L1.35028087,1.3833655 L1.35028087,2.76658005 L6.8502054,6.17521591 L12.3501299,2.76658005 Z M12.3501299,0.000150946033 C12.7233783,0.000150946033 13.0417372,0.137374612 13.3052066,0.411821944 C13.5686761,0.686269275 13.7004108,1.01011713 13.7004108,1.3833655 L13.7004108,9.61678545 C13.7004108,9.99003382 13.5686761,10.3138817 13.3052066,10.588329 C13.0417372,10.8627763 12.7233783,11 12.3501299,11 L1.35028087,11 C0.977032501,11 0.658673596,10.8627763 0.395204158,10.588329 C0.131734719,10.3138817 0,9.99003382 0,9.61678545 L0,1.3833655 C0,1.01011713 0.131734719,0.686269275 0.395204158,0.411821944 C0.658673596,0.137374612 0.977032501,0.000150946033 1.35028087,0.000150946033 L12.3501299,0.000150946033 Z" id="icon-envelop-red"></path>
            </g>
        </g>
    </g>
</svg>