<?xml version="1.0" encoding="UTF-8" standalone="no"?>
<svg width="49px" height="49px" viewBox="0 0 49 49" version="1.1" xmlns="http://www.w3.org/2000/svg" xmlns:xlink="http://www.w3.org/1999/xlink">
    <!-- Generator: Sketch 46.2 (44496) - http://www.bohemiancoding.com/sketch -->
    <title>60 días</title>
    <desc>Created with Sketch.</desc>
    <defs></defs>
    <g id="MAH" stroke="none" stroke-width="1" fill="none" fill-rule="evenodd">
        <g id="L&amp;F-Landing-Concesionaria" transform="translate(-126.000000, -648.000000)">
            <g id="60-días" transform="translate(126.000000, 648.000000)">
                <polygon id="Fill-1" fill="#E21E26" points="28 40 45 40 45 23 28 23"></polygon>
                <path d="M45.4679402,17.112212 L45.4679402,9.87236961 C45.4679402,9.09428016 44.8332401,8.46165733 44.0531208,8.46165733 L42.6377763,8.46165733 L42.6377763,9.87236961 C42.6377763,12.2055914 40.7331511,14.1034599 38.3927929,14.1034599 C36.0524348,14.1034599 34.1483346,12.2055914 34.1483346,9.87236961 L34.1483346,8.46165733 L28.4880067,8.46165733 L28.4880067,9.87236961 C28.4880067,12.2055914 26.5833815,14.1034599 24.2430234,14.1034599 C21.9026652,14.1034599 19.998565,12.2055914 19.998565,9.87236961 L19.998565,8.46165733 L14.1497696,8.46165733 L14.1497696,9.87236961 C14.1497696,12.2055914 12.2456693,14.1034599 9.9047862,14.1034599 C7.56390309,14.1034599 5.65980283,12.2055914 5.65980283,9.87236961 L5.65980283,8.46165733 L4.24445839,8.46165733 C3.46433901,8.46165733 2.82963893,9.09428016 2.82963893,9.87236961 L2.82963893,17.112212 L45.4679402,17.112212 Z M45.4679402,43.9089428 L45.4679402,19.9331133 L2.82963893,19.9331133 L2.82963893,43.9089428 C2.82963893,44.6865089 3.46433901,45.3191318 4.24445839,45.3191318 L44.0531208,45.3191318 C44.8332401,45.3191318 45.4679402,44.6865089 45.4679402,43.9089428 Z M8.48944176,4.23056704 L8.48944176,9.87236961 C8.48944176,10.6499358 9.12414185,11.2825586 9.9047862,11.2825586 C10.6849056,11.2825586 11.3196057,10.6499358 11.3196057,9.87236961 L11.3196057,4.23056704 C11.3196057,3.45300085 10.6849056,2.82037802 9.9047862,2.82037802 C9.12414185,2.82037802 8.48944176,3.45300085 8.48944176,4.23056704 Z M22.8282039,4.23056704 L22.8282039,9.87236961 C22.8282039,10.6499358 23.462904,11.2825586 24.2430234,11.2825586 C25.0236677,11.2825586 25.6583678,10.6499358 25.6583678,9.87236961 L25.6583678,4.23056704 C25.6583678,3.45300085 25.0236677,2.82037802 24.2430234,2.82037802 C23.462904,2.82037802 22.8282039,3.45300085 22.8282039,4.23056704 Z M36.9779735,4.23056704 L36.9779735,9.87236961 C36.9779735,10.6499358 37.6126736,11.2825586 38.3927929,11.2825586 C39.1734373,11.2825586 39.8081374,10.6499358 39.8081374,9.87236961 L39.8081374,4.23056704 C39.8081374,3.45300085 39.1734373,2.82037802 38.3927929,2.82037802 C37.6126736,2.82037802 36.9779735,3.45300085 36.9779735,4.23056704 Z M44.0531208,5.64127931 C46.3929539,5.64127931 48.2981041,7.53914779 48.2981041,9.87236961 L48.2981041,43.9089428 C48.2981041,46.2411181 46.3929539,48.1400331 44.0531208,48.1400331 L4.24445839,48.1400331 C1.90410026,48.1400331 0,46.2411181 0,43.9089428 L0,9.87236961 C0,7.53914779 1.90410026,5.64127931 4.24445839,5.64127931 L5.65980283,5.64127931 L5.65980283,4.23056704 C5.65980283,1.89786848 7.56390309,0 9.9047862,0 C12.2456693,0 14.1497696,1.89786848 14.1497696,4.23056704 L14.1497696,5.64127931 L19.998565,5.64127931 L19.998565,4.23056704 C19.998565,1.89786848 21.9026652,0 24.2430234,0 C26.5833815,0 28.4880067,1.89786848 28.4880067,4.23056704 L28.4880067,5.64127931 L34.1483346,5.64127931 L34.1483346,4.23056704 C34.1483346,1.89786848 36.0524348,0 38.3927929,0 C40.7331511,0 42.6377763,1.89786848 42.6377763,4.23056704 L42.6377763,5.64127931 L44.0531208,5.64127931 Z" id="Fill-2" fill="#231F20"></path>
                <path d="M34.4885317,31.4621806 L40.1483346,31.4621806 L40.1483346,25.8209013 L34.4885317,25.8209013 L34.4885317,31.4621806 Z M34.4885317,39.9238379 L40.1483346,39.9238379 L40.1483346,34.2825586 L34.4885317,34.2825586 L34.4885317,39.9238379 Z M25.998565,31.4621806 L31.6583678,31.4621806 L31.6583678,25.8209013 L25.998565,25.8209013 L25.998565,31.4621806 Z M25.998565,39.9238379 L31.6583678,39.9238379 L31.6583678,34.2825586 L25.998565,34.2825586 L25.998565,39.9238379 Z M17.3196057,31.4621806 L23.1684011,31.4621806 L23.1684011,25.8209013 L17.3196057,25.8209013 L17.3196057,31.4621806 Z M17.3196057,39.9238379 L23.1684011,39.9238379 L23.1684011,34.2825586 L17.3196057,34.2825586 L17.3196057,39.9238379 Z M8.83016391,31.4621806 L14.4899667,31.4621806 L14.4899667,25.8209013 L8.83016391,25.8209013 L8.83016391,31.4621806 Z M8.83016391,39.9238379 L14.4899667,39.9238379 L14.4899667,34.2825586 L8.83016391,34.2825586 L8.83016391,39.9238379 Z M41.563154,23 L7.41481946,23 C6.63312515,23 6,23.631053 6,24.410189 L6,41.3345502 C6,42.1131629 6.63312515,42.7447392 7.41481946,42.7447392 L41.563154,42.7447392 C42.3443234,42.7447392 42.9779735,42.1131629 42.9779735,41.3345502 L42.9779735,24.410189 C42.9779735,23.631053 42.3443234,23 41.563154,23 L41.563154,23 Z" id="Fill-4" fill="#231F20"></path>
            </g>
        </g>
    </g>
</svg>