<?xml version="1.0" encoding="UTF-8"?>
<svg width="61px" height="61px" viewBox="0 0 61 61" version="1.1" xmlns="http://www.w3.org/2000/svg" xmlns:xlink="http://www.w3.org/1999/xlink">
    <!-- Generator: Sketch 46.2 (44496) - http://www.bohemiancoding.com/sketch -->
    <title>icon-home-3@2x</title>
    <desc>Created with Sketch.</desc>
    <defs>
        <polygon id="path-1" points="60.8845304 60.8660672 60.8845304 0.0735562044 0.0938153285 0.0735562044 0.0938153285 60.8660672 60.8845304 60.8660672"></polygon>
    </defs>
    <g id="MAH" stroke="none" stroke-width="1" fill="none" fill-rule="evenodd">
        <g id="L&amp;F-Home" transform="translate(-930.000000, -525.000000)">
            <g id="icon-home-3" transform="translate(930.000000, 525.000000)">
                <path d="M10.5606875,54.4393125 C10.2815,54.1603125 9.894875,54 9.5,54 C9.1053125,54 8.7185,54.1603125 8.4395,54.4393125 C8.1605,54.7185 8,55.105125 8,55.5 C8,55.8939375 8.1605,56.2815 8.4395,56.5605 C8.7185,56.83875 9.1053125,57 9.5,57 C9.894875,57 10.2815,56.8395 10.5606875,56.5605 C10.8396875,56.2815 11,55.8939375 11,55.5 C11,55.105125 10.8396875,54.7185 10.5606875,54.4393125" id="Fill-15" fill="#231F20"></path>
                <path d="M56.55986,21.4395 C56.2809298,21.1603125 55.8949638,21 55.4996251,21 C55.1048488,21 54.7183204,21.1603125 54.4393902,21.4395 C54.1602724,21.7185 54,22.105125 54,22.5 C54,22.8939375 54.1602724,23.2815 54.4393902,23.55975 C54.7183204,23.83875 55.1048488,24 55.4996251,24 C55.8949638,24 56.2809298,23.8395 56.55986,23.55975 C56.8395401,23.2815 57,22.8939375 57,22.5 C57,22.105125 56.8395401,21.7185 56.55986,21.4395" id="Fill-17" fill="#231F20"></path>
                <polygon id="Fill-57" fill="#E40019" points="0.893554829 33 15 33 15 57 0 57"></polygon>
                <g id="Group-21">
                    <mask id="mask-2" fill="white">
                        <use xlink:href="#path-1"></use>
                    </mask>
                    <g id="Clip-20"></g>
                    <path d="M45.0929662,33.7773178 C43.2690513,33.7773178 41.7854601,32.2937265 41.7854601,30.4698117 C41.7854601,28.6458968 43.269645,27.1623056 45.0929662,27.1623056 C46.916881,27.1623056 48.4004723,28.6458968 48.4004723,30.4698117 C48.4004723,32.2937265 46.916881,33.7773178 45.0929662,33.7773178 L45.0929662,33.7773178 Z M58.5098494,58.4913713 L50.0372314,58.4913713 C50.2674285,57.9834832 50.396701,57.4211255 50.396701,56.8284905 C50.396701,56.2360039 50.2674285,55.6736462 50.0372314,55.1663518 L50.4100586,55.1663518 C52.6357423,55.1663518 54.4468932,53.3557946 54.4468932,51.1295173 C54.4468932,50.4801864 54.291499,49.8667727 54.018409,49.3229674 C55.7275964,48.8533713 56.9873725,47.2868141 56.9873725,45.430544 C56.9873725,44.5300891 56.6905355,43.6976097 56.1902168,43.0255708 L56.1902168,27.9768263 C56.1902168,27.3217071 55.6585818,26.7894783 55.0028689,26.7894783 C54.347156,26.7894783 53.8155209,27.3217071 53.8155209,27.9768263 L53.8155209,41.4881036 C53.5366426,41.4272521 53.2473749,41.3935611 52.9499443,41.3935611 L52.9110586,41.3935611 C53.1412557,40.8862667 53.2705282,40.323909 53.2705282,39.7314224 C53.2705282,37.505145 51.459971,35.6945878 49.2336937,35.6945878 L47.3250319,35.6945878 C49.3519832,34.8254491 50.7751681,32.8108165 50.7751681,30.4698117 C50.7751681,27.3361036 48.2260805,24.7870161 45.0929662,24.7870161 C41.9600002,24.7870161 39.4107642,27.3361036 39.4107642,30.4698117 C39.4107642,32.8108165 40.8340976,34.8254491 42.8609005,35.6945878 L36.3705599,35.6945878 L36.3705599,13.1182058 C38.4913117,12.6560307 40.165027,10.9823153 40.6270538,8.86096983 L49.5582849,8.86096983 C50.0209054,10.9823153 51.6941754,12.6560307 53.8155209,13.1182058 L53.8155209,16.8095221 C53.8155209,17.465235 54.347156,17.9968701 55.0028689,17.9968701 C55.6585818,17.9968701 56.1902168,17.465235 56.1902168,16.8095221 L56.1902168,12.0577557 C56.1902168,11.4026365 55.6585818,10.8704078 55.0028689,10.8704078 C53.2398056,10.8704078 51.806083,9.43668516 51.806083,7.6736219 C51.806083,7.017909 51.2744479,6.48627397 50.618735,6.48627397 L39.5673457,6.48627397 C38.9116328,6.48627397 38.3799978,7.017909 38.3799978,7.6736219 C38.3799978,9.43668516 36.9456815,10.8704078 35.1832119,10.8704078 C34.527499,10.8704078 33.995864,11.4026365 33.995864,12.0577557 L33.995864,35.6945878 L31.6768251,35.6945878 L31.6768251,2.44943942 L58.5098494,2.44825207 L58.5098494,58.4913713 Z M46.359718,58.4913713 L23.855319,58.4913713 C22.9827667,58.4913713 22.140937,58.1753883 21.4834431,57.6024929 L18.6159978,55.1014929 L18.6159978,38.679729 L23.799662,33.4960647 L24.7398932,37.1747655 C24.8745088,37.7000185 25.3475185,38.0675027 25.8901365,38.0675027 L49.2342873,38.0692837 C50.1507715,38.0692837 50.896426,38.8147898 50.896426,39.7314224 C50.896426,40.648055 50.1507715,41.3935611 49.2342873,41.3935611 L37.2726474,41.3935611 C36.6169345,41.3935611 36.0852995,41.9251961 36.0852995,42.580909 C36.0852995,43.2366219 36.6169345,43.7682569 37.2726474,43.7682569 L52.950538,43.7682569 C53.8670221,43.7682569 54.6126766,44.5139114 54.6126766,45.430544 C54.6126766,46.3470282 53.8670221,47.0932764 52.950538,47.0932764 L37.2726474,47.0932764 C36.6169345,47.0932764 36.0852995,47.6249114 36.0852995,48.2806243 C36.0852995,48.9363372 36.6169345,49.4679723 37.2726474,49.4679723 L50.4100586,49.4679723 C51.3265428,49.4679723 52.0721973,50.2134783 52.0721973,51.1301109 C52.0721973,52.0467436 51.3265428,52.7922496 50.4100586,52.7922496 L37.2726474,52.7922496 C36.6169345,52.7922496 36.0852995,53.3238847 36.0852995,53.9795976 C36.0852995,54.6353105 36.6169345,55.1669455 37.2726474,55.1669455 L46.359718,55.1669455 C47.2763506,55.1669455 48.0220051,55.9126 48.0220051,56.8290842 C48.0220051,57.7451231 47.2763506,58.4913713 46.359718,58.4913713 L46.359718,58.4913713 Z M29.3021292,16.9607606 L29.3021292,26.9801961 L27.1361097,18.9615903 C28.0411657,18.4942204 28.7814771,17.7950209 29.3021292,16.9607606 L29.3021292,16.9607606 Z M19.8085404,9.65990657 L29.3021292,7.11645888 L29.3021292,11.5163251 L28.5061608,11.7290088 C28.2017545,11.8107873 27.9426158,12.0096681 27.784847,12.2827582 C27.6278202,12.5552545 27.5847788,12.8792521 27.6665574,13.1836584 C28.1227959,14.8864637 27.1088007,16.6425513 25.4061438,17.0987898 C25.1011438,17.1805684 24.8414114,17.3798944 24.6843847,17.6529844 C24.5272095,17.9266681 24.4849102,18.2508141 24.5671341,18.5556657 L29.1948226,35.6934005 L26.8119637,35.6934005 L25.5840976,30.8889455 C25.5452119,30.735926 25.476791,30.5950769 25.3852168,30.4726316 L19.8085404,9.65990657 Z M16.2413019,57.3040234 C16.2413019,57.9585489 15.7084796,58.4913713 15.053954,58.4913713 L3.65585912,58.4913713 C3.00133358,58.4913713 2.46851119,57.9585489 2.46851119,57.3040234 L2.46851119,37.9504005 C2.46851119,37.2958749 3.00133358,36.7630526 3.65585912,36.7630526 L8.16748443,36.7630526 L8.16748443,50.4407071 C8.16748443,51.09642 8.69911946,51.628055 9.35483236,51.628055 C10.0105453,51.628055 10.5421803,51.09642 10.5421803,50.4407071 L10.5421803,36.7630526 L15.053954,36.7630526 C15.7090732,36.7630526 16.2413019,37.2958749 16.2413019,37.9504005 L16.2413019,57.3040234 Z M60.537246,0.421449148 C60.3140246,0.198821411 60.0119929,0.0735562044 59.6971973,0.0735562044 L30.4888835,0.0753372263 C29.8331706,0.0753372263 29.3021292,0.606972263 29.3021292,1.26268516 L29.3021292,4.65775815 L18.0472582,7.6736219 C17.4135112,7.84356107 17.037864,8.49452457 17.2076547,9.12767786 L23.0406499,30.8971085 L17.9944212,35.9427436 C17.3520659,35.0051839 16.2738056,34.3883567 15.053954,34.3883567 L3.65585912,34.3883567 C1.69168881,34.3883567 0.0938153285,35.9862302 0.0938153285,37.9504005 L0.0938153285,57.3040234 C0.0938153285,59.2676 1.69168881,60.8660672 3.65585912,60.8660672 L15.0545477,60.8660672 C16.7230684,60.8660672 18.126662,59.7122618 18.5110659,58.1608433 L19.9226742,59.3922715 C21.0126596,60.3424467 22.4092776,60.8660672 23.855319,60.8660672 L59.6971973,60.8660672 C60.3529102,60.8660672 60.8845453,60.3344321 60.8845453,59.6787192 L60.8845453,1.26090414 C60.8845453,0.946108516 60.7598737,0.644076886 60.537246,0.421449148 L60.537246,0.421449148 Z" id="Fill-19" fill="#231F20" mask="url(#mask-2)"></path>
                </g>
            </g>
        </g>
    </g>
</svg>