<?xml version="1.0" encoding="UTF-8"?>
<svg width="22px" height="38px" viewBox="0 0 22 38" version="1.1" xmlns="http://www.w3.org/2000/svg" xmlns:xlink="http://www.w3.org/1999/xlink">
    <!-- Generator: sketchtool 51.2 (57519) - http://www.bohemiancoding.com/sketch -->
    <title>768AA578-E901-42F1-8728-285DF47D54AA</title>
    <desc>Created with sketchtool.</desc>
    <defs></defs>
    <g id="MAH" stroke="none" stroke-width="1" fill="none" fill-rule="evenodd">
        <g id="MAH-Home-Modal-Tipo-de-vendedor" transform="translate(-516.000000, -312.000000)" fill-rule="nonzero">
            <g id="icon-rayo" transform="translate(516.000000, 312.000000)">
                <polygon id="Shape" fill="#E40019" points="12.3049133 0 5 17.6143268 13.7789017 17.6143268 6.19219653 34 20 15.1135273 11.1669075 14.8090822 17.8323699 0"></polygon>
                <path d="M21.9210035,14.8831093 C21.7796533,14.6019871 21.4969528,14.4289889 21.1925061,14.4289889 L12.6571253,14.4289889 L16.3104857,6.90356517 C16.5062015,6.50350672 16.3322319,6.01694915 15.9299274,5.82232613 C15.5276228,5.6277031 15.0383334,5.80070134 14.8426177,6.20075979 L10.6238563,14.8939217 C10.5042522,15.1426067 10.5151253,15.4453536 10.6673486,15.6724138 C10.819572,15.9102864 11.0805263,16.0508475 11.3632268,16.0508475 L19.5397954,16.0508475 L6.38334862,33.06955 L10.5259984,19.9649328 C10.6021101,19.7162478 10.5586177,19.445938 10.4063943,19.2405026 C10.254171,19.0350672 10.0040898,18.9053185 9.75400853,18.9053185 L1.94712524,18.9053185 L7.3728004,2.61104617 L16.5823131,2.61104617 L16.343105,3.10841613 C16.1473893,3.50847458 16.3213588,3.99503214 16.7236634,4.18965517 C17.125968,4.3842782 17.6152573,4.21127995 17.810973,3.81122151 L18.6155822,2.15692577 C18.7351862,1.90824079 18.7243132,1.60549386 18.5720898,1.37843366 C18.4198665,1.15137347 18.1589121,1 17.8762116,1 L6.78565319,1 C6.4377141,1 6.1223943,1.2270602 6.01366334,1.55143191 L0.0443333541,19.4675628 C-0.042651418,19.7162478 0.00084096807,19.9865576 0.153064319,20.2028054 C0.30528767,20.4190532 0.55536889,20.5379895 0.816323206,20.5379895 L8.6232065,20.5379895 L3.43673946,36.9511981 C3.3171354,37.3296318 3.49110495,37.7296902 3.83904404,37.9135009 C3.9586481,37.9783752 4.08912525,38 4.21960241,38 C4.46968363,38 4.70889176,37.8918761 4.86111511,37.6864407 L21.8340188,15.7372881 C22.0188614,15.4886032 22.0514807,15.1534191 21.9210035,14.8831093 Z" id="Shape" fill="#000000"></path>
            </g>
        </g>
    </g>
</svg>