<?xml version="1.0" encoding="UTF-8"?>
<svg width="42px" height="41px" viewBox="0 0 42 41" version="1.1" xmlns="http://www.w3.org/2000/svg" xmlns:xlink="http://www.w3.org/1999/xlink">
    <!-- Generator: Sketch 46.2 (44496) - http://www.bohemiancoding.com/sketch -->
    <title>icon-twitter</title>
    <desc>Created with Sketch.</desc>
    <defs></defs>
    <g id="MAH" stroke="none" stroke-width="1" fill="none" fill-rule="evenodd">
        <g id="L&amp;F-Detalle" transform="translate(-1022.000000, -493.000000)" fill="#1DA1F2">
            <g id="Group-6" transform="translate(931.000000, 492.000000)">
                <g id="Page-1">
                    <g id="icon-twitter" transform="translate(91.000000, 0.276000)">
                        <path d="M29.5012,18.0257 C29.5012,17.8357 29.4982,17.6477 29.4892,17.4607 C30.3022,16.8557 31.0072,16.0977 31.5652,15.2297 C30.8192,15.5657 30.0182,15.7897 29.1762,15.8837 C30.0352,15.3547 30.6942,14.5097 31.0052,13.4947 C30.2012,13.9827 29.3112,14.3317 28.3652,14.5127 C27.6072,13.6507 26.5262,13.1017 25.3302,13.0807 C23.0332,13.0427 21.1722,14.9837 21.1722,17.4147 C21.1722,17.7607 21.2082,18.0957 21.2792,18.4187 C17.8212,18.1967 14.7572,16.3967 12.7072,13.6827 C12.3502,14.3337 12.1442,15.0927 12.1442,15.9077 C12.1442,17.4477 12.8782,18.8157 13.9942,19.6237 C13.3112,19.5927 12.6712,19.3857 12.1102,19.0467 L12.1102,19.1037 C12.1102,21.2557 13.5442,23.0597 15.4472,23.4807 C15.0972,23.5797 14.7302,23.6307 14.3512,23.6297 C14.0832,23.6277 13.8232,23.5987 13.5702,23.5437 C14.0982,25.3077 15.6352,26.5967 17.4542,26.6387 C16.0302,27.8197 14.2372,28.5247 12.2902,28.5197 C11.9552,28.5197 11.6222,28.4977 11.2972,28.4557 C13.1382,29.7187 15.3232,30.4547 17.6732,30.4547 C25.3192,30.4567 29.5012,23.8007 29.5012,18.0257" id="Fill-14"></path>
                        <path d="M21.4309,3.724 C11.7819,3.724 3.9309,11.575 3.9309,21.224 C3.9309,30.873 11.7819,38.724 21.4309,38.724 C31.0799,38.724 38.9309,30.873 38.9309,21.224 C38.9309,11.575 31.0799,3.724 21.4309,3.724 M21.4309,41.724 C10.1269,41.724 0.9309,32.528 0.9309,21.224 C0.9309,9.92 10.1269,0.724 21.4309,0.724 C32.7349,0.724 41.9309,9.92 41.9309,21.224 C41.9309,32.528 32.7349,41.724 21.4309,41.724" id="Fill-16"></path>
                    </g>
                </g>
            </g>
        </g>
    </g>
</svg>