<?xml version="1.0" encoding="UTF-8" standalone="no"?>
<svg width="60px" height="46px" viewBox="0 0 60 46" version="1.1" xmlns="http://www.w3.org/2000/svg" xmlns:xlink="http://www.w3.org/1999/xlink">
    <!-- Generator: Sketch 46.2 (44496) - http://www.bohemiancoding.com/sketch -->
    <title>chat</title>
    <desc>Created with Sketch.</desc>
    <defs></defs>
    <g id="MAH" stroke="none" stroke-width="1" fill="none" fill-rule="evenodd">
        <g id="L&amp;F-Landing-Concesionaria" transform="translate(-274.000000, -652.000000)">
            <g id="chat" transform="translate(274.000000, 652.000000)">
                <polygon id="Fill-11" fill="#E21E26" points="31.6471409 20 60 20.4619907 60 38.3361634 56.3890917 38.3361634 56.8404552 46 49.5984154 38.7281297 31 38.8041318 31 20"></polygon>
                <path d="M40.8377304,0 L3.16269826,0 C1.41888469,0 0,1.39439493 0,3.10811051 L0,25.3206953 C0,27.0348322 1.41888469,28.4288058 3.16269826,28.4288058 L5.60566619,28.4288058 L5.60566619,36.6982839 C5.60566619,37.2248681 5.92802307,37.6996364 6.42356105,37.9010022 C6.58731148,37.9679837 6.75963524,38 6.93024434,38 C7.27532053,38 7.61353805,37.8681433 7.8668797,37.6191743 L17.2186587,28.4292271 L19.09493,28.4292271 C19.826663,28.4292271 20.4195082,27.8457718 20.4195082,27.1270897 C20.4195082,26.4079863 19.826663,25.8245311 19.09493,25.8245311 C19.09493,25.8245311 16.6060949,25.8266374 16.5799462,25.8295863 C16.2713067,25.8498071 15.9686684,25.9745022 15.7329021,26.2061993 L8.25525116,33.5547869 C8.25525116,33.5547869 8.25310783,27.0449426 8.24882117,27.0112412 C8.18880792,26.3464813 7.62168271,25.8245311 6.92981567,25.8245311 L3.16269826,25.8245311 C2.87977865,25.8245311 2.64958497,25.5987318 2.64958497,25.3206953 L2.64958497,3.10811051 C2.64958497,2.83049532 2.87977865,2.60385349 3.16269826,2.60385349 L40.8377304,2.60385349 C41.12065,2.60385349 41.350415,2.83049532 41.350415,3.10811051 L41.350415,11.630349 C41.350415,12.3490311 41.9436889,12.9324864 42.6754218,12.9324864 C43.4071548,12.9324864 44,12.3490311 44,11.630349 L44,3.10811051 C44,1.39439493 42.581544,0 40.8377304,0" id="Fill-12" fill="#231F20"></path>
                <path d="M54.3258557,34.6967101 C54.3258557,34.981379 54.093961,35.212996 53.8084191,35.212996 L51.5526375,35.212996 C50.8495985,35.212996 50.2737555,35.7551609 50.2205409,36.4435422 C50.2175124,36.4724404 50.2153492,40.4487477 50.2153492,40.4487477 L45.3602703,35.608082 C45.3550787,35.6033375 45.3494544,35.5981617 45.3446953,35.5934172 C45.3256592,35.5748706 45.3074883,35.5584806 45.2906154,35.5446784 C45.054827,35.3385091 44.7480857,35.212996 44.4101943,35.212996 L27.1920132,35.212996 C26.9069038,35.212996 26.6750091,34.981379 26.6750091,34.6967101 L26.6750091,19.1822536 C26.6750091,18.8975846 26.9069038,18.6659676 27.1920132,18.6659676 L53.8084191,18.6659676 C54.093961,18.6659676 54.3258557,18.8975846 54.3258557,19.1822536 L54.3258557,34.6967101 Z M53.8084191,16 L27.1920132,16 C25.4320363,16 24,17.4272265 24,19.1822536 L24,34.6967101 C24,36.4513058 25.4320363,37.8789637 27.1920132,37.8789637 L43.8555507,37.8789637 L50.6068878,44.6096585 C50.8625777,44.8645666 51.2047954,45 51.5526375,45 C51.7248279,45 51.8987489,44.9672199 52.0640172,44.8986406 C52.5637156,44.69204 52.8894931,44.2059462 52.8894931,43.6672318 L52.8894931,37.8789637 L53.8084191,37.8789637 C55.5688286,37.8789637 56.9999996,36.4513058 56.9999996,34.6967101 L56.9999996,19.1822536 C57.0008649,17.4272265 55.5688286,16 53.8084191,16 L53.8084191,16 Z" id="Fill-13" fill="#231F20"></path>
                <path d="M40.5,26 C39.6721126,26 39,26.671736 39,27.4997573 C39,28.328264 39.6721126,29 40.5,29 C41.3283727,29 42,28.328264 42,27.4997573 C42,26.671736 41.3278874,26 40.5,26" id="Fill-14" fill="#231F20"></path>
                <path d="M34.6636661,9 L10.3363339,9 C9.59810674,9 9,9.67125061 9,10.5002427 C9,11.3287494 9.59810674,12 10.3363339,12 L34.6636661,12 C35.4018933,12 36,11.3287494 36,10.5002427 C36,9.67125061 35.4018933,9 34.6636661,9" id="Fill-15" fill="#231F20"></path>
                <path d="M19.6530568,17 L10.3469432,17 C9.60329107,17 9,17.671736 9,18.5002427 C9,19.3287494 9.60329107,20 10.3469432,20 L19.6530568,20 C20.3971448,20 21,19.3287494 21,18.5002427 C21,17.671736 20.3971448,17 19.6530568,17" id="Fill-16" fill="#231F20"></path>
                <path d="M34.4997573,26 C33.671736,26 33,26.671736 33,27.4997573 C33,28.328264 33.671736,29 34.4997573,29 C35.328264,29 36,28.328264 36,27.4997573 C36,26.671736 35.328264,26 34.4997573,26" id="Fill-17" fill="#231F20"></path>
                <path d="M46.4997573,26 C45.671736,26 45,26.671736 45,27.4997573 C45,28.328264 45.671736,29 46.4997573,29 C47.328264,29 48,28.328264 48,27.4997573 C48,26.671736 47.328264,26 46.4997573,26" id="Fill-18" fill="#231F20"></path>
            </g>
        </g>
    </g>
</svg>