<?xml version="1.0" encoding="UTF-8"?>
<svg width="18px" height="18px" viewBox="0 0 18 18" version="1.1" xmlns="http://www.w3.org/2000/svg" xmlns:xlink="http://www.w3.org/1999/xlink">
    <!-- Generator: Sketch 46.2 (44496) - http://www.bohemiancoding.com/sketch -->
    <title>icon-edit-red</title>
    <desc>Created with Sketch.</desc>
    <defs></defs>
    <g id="Symbols" stroke="none" stroke-width="1" fill="none" fill-rule="evenodd">
        <g id="Button/-icon-+-text" transform="translate(0.000000, -1.000000)" fill="#E40019">
            <g id="Group-3">
                <path d="M16.5844016,4.96399288 C16.638042,4.8830562 16.6856518,4.80910229 16.7259615,4.74149636 C16.7665885,4.67452522 16.7796018,4.59993652 16.7665885,4.51899984 C16.7526229,4.43806316 16.7392922,4.36410926 16.7259615,4.29650332 C16.7119959,4.22953219 16.6513727,4.15494349 16.544092,4.07400681 L14.8853662,2.37528874 C14.8047469,2.32133096 14.7301582,2.28102132 14.663187,2.25372503 C14.5952637,2.22738093 14.5213098,2.21341539 14.4406905,2.21341539 C14.3597538,2.21341539 14.2851651,2.22738093 14.2178766,2.25372503 C14.1505881,2.28102132 14.0766342,2.32133096 13.9956975,2.37528874 L13.1460211,3.26495742 L15.6944155,5.81335191 L16.5844016,4.96399288 Z M11.3663663,5.00430252 L13.9550704,7.59332405 L14.8047469,6.70333798 L12.296662,4.11463385 L11.3663663,5.00430252 Z M3.84274656,12.5685493 L6.39114105,15.1169438 L13.1057114,8.44268308 L10.5170073,5.85397895 L3.84274656,12.5685493 Z M2.26527481,15.9259932 L3.07432421,16.6944155 L5.4202183,15.8853662 L3.11463385,13.5394721 L2.26527481,15.9259932 Z M17.4743877,3.22464778 C17.6089648,3.41350003 17.7302111,3.61568302 17.838444,3.83151417 C17.9457248,4.04766271 17.9930172,4.2761898 17.9800039,4.51899984 C17.9660383,4.76180988 17.9193807,4.99097177 17.838444,5.20680291 C17.7575074,5.42295146 17.6222955,5.62513445 17.4337606,5.81335191 L6.43145069,16.8562889 L0,19 L2.1437111,12.5685493 L13.1460211,1.52561232 C13.3345559,1.33739486 13.5367389,1.202183 13.7528874,1.12124632 C13.9684012,1.04030964 14.1978805,1 14.4406905,1 C14.6831832,1 14.9120276,1.04030964 15.1281762,1.12124632 C15.3436899,1.202183 15.5461903,1.33739486 15.7350426,1.52561232 L17.4337606,3.22464778 L17.4743877,3.22464778 Z" id="icon-edit-red"></path>
            </g>
        </g>
    </g>
</svg>