<?xml version="1.0" encoding="UTF-8"?>
<svg width="33px" height="29px" viewBox="0 0 33 29" version="1.1" xmlns="http://www.w3.org/2000/svg" xmlns:xlink="http://www.w3.org/1999/xlink">
    <!-- Generator: Sketch 46.2 (44496) - http://www.bohemiancoding.com/sketch -->
    <title>Fill 1</title>
    <desc>Created with Sketch.</desc>
    <defs></defs>
    <g id="MAH" stroke="none" stroke-width="1" fill="none" fill-rule="evenodd">
        <g id="L&amp;F-Panel-de-control---concesionaria---DASHBOARD" transform="translate(-1324.000000, -376.000000)" fill="#FFFFFF">
            <g id="Group-2" transform="translate(1125.000000, 340.000000)">
                <g id="Page-1" transform="translate(199.000000, 36.000000)">
                    <path d="M26.5759068,19.9002264 C27.3386462,19.9002264 27.9837966,19.6380089 28.5121525,19.1163257 C29.0401112,18.5934632 29.3038919,17.9396885 29.3038919,17.1557878 C29.3038919,16.3734597 29.0401112,15.7263682 28.5121525,15.2192308 C27.9837966,14.7109141 27.3386462,14.4565592 26.5759068,14.4565592 C25.8131674,14.4565592 25.1608663,14.7187767 24.618209,15.2404598 C24.0751544,15.7633224 23.804223,16.4025513 23.804223,17.1557878 C23.804223,17.9121694 24.0676064,18.5576884 24.5963597,19.0939173 C25.1243183,19.6313257 25.7837701,19.9002264 26.5759068,19.9002264 L26.5759068,19.9002264 Z M6.46779184,19.9002264 C7.23013399,19.9002264 7.87568166,19.6380089 8.40364035,19.1163257 C8.93159903,18.5934632 9.195777,17.9396885 9.195777,17.1557878 C9.195777,16.3734597 8.93159903,15.7263682 8.40364035,15.2192308 C7.87568166,14.7109141 7.23013399,14.4565592 6.46779184,14.4565592 C5.70465517,14.4565592 5.05195681,14.7187767 4.50969676,15.2404598 C3.96664219,15.7633224 3.69571079,16.4025513 3.69571079,17.1557878 C3.69571079,17.9121694 3.95988877,18.5576884 4.48784745,19.0939173 C5.01540888,19.6313257 5.67565518,19.9002264 6.46779184,19.9002264 L6.46779184,19.9002264 Z M3.69571079,10.8861551 L29.3038919,10.8861551 L26.5759068,2.70080117 L6.46779184,2.70080117 L3.69571079,10.8861551 Z M29.2157002,1.78520206 L33,12.6713571 L33,27.2147979 C33,27.708962 32.824411,28.1292177 32.4720413,28.4783169 C32.1200689,28.8258435 31.6946033,29 31.1960418,29 L29.3038919,29 C28.8053305,29 28.3798649,28.8258435 28.0274952,28.4783169 C27.6763173,28.1292177 27.4999338,27.708962 27.4999338,27.2147979 L27.4999338,25.3427142 L5.49927169,25.3427142 L5.49927169,27.2147979 C5.49927169,27.708962 5.32368272,28.1292177 4.97171026,28.4783169 C4.61934055,28.8258435 4.19427223,29 3.69571079,29 L1.8035609,29 C1.3046022,29 0.879931142,28.8258435 0.527561425,28.4783169 C0.175588968,28.1292177 0,27.708962 0,27.2147979 L0,12.6713571 L3.78350528,1.78520206 C3.95988877,1.23442732 4.29676534,0.799625849 4.79572404,0.479618257 C5.29428547,0.160790055 5.85164141,0 6.46779184,0 L26.5759068,0 C27.1924545,0 27.7422625,0.160790055 28.2261253,0.479618257 C28.7099881,0.799625849 29.0401112,1.23442732 29.2157002,1.78520206 L29.2157002,1.78520206 Z" id="Fill-1"></path>
                </g>
            </g>
        </g>
    </g>
</svg>