<?xml version="1.0" encoding="UTF-8"?>
<svg width="61px" height="50px" viewBox="0 0 61 50" version="1.1" xmlns="http://www.w3.org/2000/svg" xmlns:xlink="http://www.w3.org/1999/xlink">
    <!-- Generator: Sketch 46.2 (44496) - http://www.bohemiancoding.com/sketch -->
    <title>icon-landing-3</title>
    <desc>Created with Sketch.</desc>
    <defs>
        <polygon id="path-1" points="0 50 61 50 61 0 0 0"></polygon>
    </defs>
    <g id="MAH" stroke="none" stroke-width="1" fill="none" fill-rule="evenodd">
        <g id="L&amp;F-Landing-Concesionaria" transform="translate(-939.000000, -524.000000)">
            <g id="icon-landing-3" transform="translate(939.000000, 524.000000)">
                <g id="Group-3">
                    <polygon id="Fill-11" fill="#E40019" points="24.4 50 35.99 50 35.99 40.2439024 24.4 40.2439024"></polygon>
                    <g id="Group-2">
                        <path d="M34.77,36.2804059 C34.77,37.1223128 34.0871984,37.804878 33.245,37.804878 C32.4028016,37.804878 31.72,37.1223128 31.72,36.2804059 C31.72,35.4386628 32.4028016,34.7560976 33.245,34.7560976 C34.0871984,34.7560976 34.77,35.4386628 34.77,36.2804059 Z" id="Fill-1" fill="#231F20"></path>
                        <path d="M11.59,44.207399 C11.59,45.0493058 10.9071984,45.7317073 10.065,45.7317073 C9.22280159,45.7317073 8.54,45.0493058 8.54,44.207399 C8.54,43.364837 9.22280159,42.6829268 10.065,42.6829268 C10.9071984,42.6829268 11.59,43.364837 11.59,44.207399" id="Fill-3" fill="#231F20"></path>
                        <path d="M28.8039197,47.2224129 C28.9425591,46.8057077 29.0816456,46.3890024 29.0816456,45.8335447 L29.0816456,41.6666418 L37.4077581,41.6666418 L37.4077581,45.8335447 C37.4077581,46.3890024 37.5468446,46.8057077 37.685484,47.2224129 L28.8039197,47.2224129 Z M56.8363475,0 L9.6530562,0 C7.29410034,0 5.49,1.80557338 5.49,4.16705209 L5.49,18.0557338 C5.49,18.8891442 6.04500459,19.4444527 6.87773509,19.4444527 C7.70986929,19.4444527 8.26532111,18.8891442 8.26532111,18.0557338 L8.26532111,4.16705209 C8.26532111,3.33364167 8.8203257,2.77818392 9.6530562,2.77818392 L56.8363475,2.77818392 C57.669078,2.77818392 58.2239335,3.33364167 58.2239335,4.16705209 L58.2239335,37.5001865 C58.2239335,38.3335969 57.669078,38.8890547 56.8363475,38.8890547 L23.5304071,38.8890547 C22.6976766,38.8890547 22.142672,39.4443632 22.142672,40.2777736 C22.142672,41.1111841 22.6976766,41.6666418 23.5304071,41.6666418 L26.3057282,41.6666418 L26.3057282,45.8335447 C26.3057282,46.6669551 25.7507236,47.2224129 24.9179931,47.2224129 L23.5304071,47.2224129 C22.6976766,47.2224129 22.142672,47.7778706 22.142672,48.611281 C22.142672,49.4440947 22.6982729,50 23.5304071,50 L42.9589966,50 C43.7917271,50 44.3467317,49.4440947 44.3467317,48.611281 C44.3467317,47.7778706 43.7917271,47.2224129 42.9589966,47.2224129 L41.5712615,47.2224129 C40.7386801,47.2224129 40.1836755,46.6665075 40.1836755,45.8335447 L40.1836755,41.6666418 L56.8363475,41.6666418 C59.1958997,41.6666418 61,39.8610684 61,37.5001865 L61,4.16705209 C61,1.80617016 59.1958997,0 56.8363475,0 L56.8363475,0 Z" id="Fill-5" fill="#231F20"></path>
                        <path d="M53.5276597,30.4878049 L23.3324877,30.4878049 C22.5089066,30.4878049 21.96,31.0981505 21.96,32.012277 C21.96,32.9270585 22.5089066,33.5365854 23.3324877,33.5365854 L53.5276597,33.5365854 C54.3512408,33.5365854 54.9,32.9270585 54.9,32.012277 C54.9,31.0981505 54.3512408,30.4878049 53.5276597,30.4878049" id="Fill-7" fill="#231F20"></path>
                        <path d="M16.731022,45.2746039 C16.731022,46.0978498 16.1734062,46.6465331 15.3367577,46.6465331 L4.18264318,46.6465331 C3.34599472,46.6465331 2.78837886,46.0974077 2.78837886,45.2746039 L2.78837886,26.0673016 C2.78837886,25.2440557 3.34659382,24.6955199 4.18264318,24.6955199 L15.3367577,24.6955199 C16.1734062,24.6955199 16.731022,25.2440557 16.731022,26.0673016 L16.731022,45.2746039 Z M15.3367577,21.9512195 L4.18264318,21.9512195 C1.81258855,21.9512195 0,23.7352137 0,26.0673016 L0,45.2746039 C0,47.6068392 1.81258855,49.3902439 4.18264318,49.3902439 L15.3367577,49.3902439 C17.7075612,49.3902439 19.52,47.6068392 19.52,45.2746039 L19.52,26.0673016 C19.52,23.7352137 17.7075612,21.9512195 15.3367577,21.9512195 L15.3367577,21.9512195 Z" id="Fill-9" fill="#231F20"></path>
                        <mask id="mask-2" fill="white">
                            <use xlink:href="#path-1"></use>
                        </mask>
                        <g id="Clip-12"></g>
                    </g>
                </g>
            </g>
        </g>
    </g>
</svg>