<?xml version="1.0" encoding="UTF-8" standalone="no"?>
<svg width="74px" height="59px" viewBox="0 0 74 59" version="1.1" xmlns="http://www.w3.org/2000/svg" xmlns:xlink="http://www.w3.org/1999/xlink">
    <!-- Generator: Sketch 46.2 (44496) - http://www.bohemiancoding.com/sketch -->
    <title>gratis</title>
    <desc>Created with Sketch.</desc>
    <defs></defs>
    <g id="MAH" stroke="none" stroke-width="1" fill="none" fill-rule="evenodd">
        <g id="L&amp;F-Landing-Concesionaria" transform="translate(-24.000000, -637.000000)">
            <g id="gratis" transform="translate(24.000000, 637.000000)">
                <polygon id="Fill-6" fill="#E21E26" points="5.98243896 15.854605 20.3879327 2.00062149 34.5558555 15.854605 34.9333223 30.3831669 20.7137262 30.3831669"></polygon>
                <path d="M34.5973831,49.1654678 L34.592972,49.1654678 C33.7258697,49.1654678 33.0257601,49.8664264 33.0257601,50.731319 C33.0257601,51.5955835 33.7302808,52.295914 34.5973831,52.295914 C35.4644855,52.295914 36.1683759,51.5955835 36.1683759,50.731319 C36.1683759,49.8664264 35.4644855,49.1654678 34.5973831,49.1654678 L34.5973831,49.1654678 Z M18.2579235,39.9229884 L10.2624334,39.9229884 C9.39533106,39.9229884 8.6927009,40.623319 8.6927009,41.4875835 C8.6927009,42.3518479 9.39533106,43.0521785 10.2624334,43.0521785 L18.2579235,43.0521785 C19.1250259,43.0521785 19.827656,42.3518479 19.827656,41.4875835 C19.827656,40.623319 19.1250259,39.9229884 18.2579235,39.9229884 L18.2579235,39.9229884 Z M63.3188876,49.1654678 L63.3157368,49.1654678 C62.4486345,49.1654678 61.7472646,49.8664264 61.7472646,50.731319 C61.7472646,51.5955835 62.4517853,52.295914 63.3188876,52.295914 C64.1859899,52.295914 64.8898804,51.5955835 64.8898804,50.731319 C64.8898804,49.8664264 64.1859899,49.1654678 63.3188876,49.1654678 L63.3188876,49.1654678 Z M67.5844513,50.7149884 C67.5749989,48.3778314 65.664349,46.4784595 63.3169971,46.4784595 C60.9646039,46.4784595 59.0508032,48.3859967 59.0508032,50.731319 C59.0508032,53.0753851 60.9646039,54.9829223 63.3169971,54.9829223 C65.66813,54.9829223 67.5813005,53.0766413 67.5844513,50.7338314 L67.5844513,50.7149884 Z M73.8747242,44.5571041 L73.8703131,45.5903273 C73.8671623,46.2479471 73.8640115,46.9985256 73.8640115,47.9224595 C73.8640115,49.7935669 72.5129451,51.4146909 70.6092269,52.0308562 C69.9916686,55.4828893 66.9561803,58.1127405 63.3169971,58.1127405 C59.2335501,58.1127405 55.9107081,54.8014017 55.9107081,50.7300628 C55.9107081,46.6599802 59.2335501,43.3486413 63.3169971,43.3486413 C66.6581138,43.3486413 69.4894298,45.5639471 70.4088355,48.5982942 C70.6060761,48.3998149 70.722656,48.1649058 70.722656,47.9224595 C70.722656,46.9922446 70.7270671,46.2372694 70.730218,45.5746248 L70.7352592,44.5426579 C70.7403005,43.2355835 70.7478625,41.6100628 70.730218,40.8186579 C70.7169846,40.2470876 70.7018607,39.7778975 70.6609002,39.3715174 L46.5068068,39.3715174 C45.9440725,39.3715174 44.6245142,39.3715174 40.5858086,35.3943934 C39.3557332,34.1827901 36.9100761,31.6038149 36.4595106,30.5172033 C36.1293059,29.7182612 36.5105537,28.8037488 37.311489,28.4739967 C38.1017117,28.1486413 39.0028427,28.5129388 39.3462808,29.2873851 C39.5599056,29.6686413 40.8372431,31.2294678 42.6880276,33.0647736 C45.0183652,35.3755504 46.2572628,36.1236165 46.5943993,36.2423273 L68.8964478,36.2423273 C68.3916883,35.7599471 67.7445124,35.1877488 66.9120689,34.4528727 C66.4791479,34.0716165 66.0046363,33.6520463 65.4834926,33.1859967 C65.1035052,32.846195 64.7254083,32.4862942 64.3592844,32.1370711 C63.8249074,31.6289388 63.2728858,31.1032198 62.6981785,30.622724 C62.1908984,30.198757 61.7107153,29.7967736 61.2538481,29.4136331 C55.4280043,24.5232529 53.8614226,23.2086413 48.9474226,23.2086413 L38.1086434,23.2086413 C37.2402808,23.2086413 36.5376506,22.5076826 36.5376506,21.6434182 C36.5376506,20.7791537 37.2402808,20.0788231 38.1086434,20.0788231 L48.9474226,20.0788231 C55.0070564,20.0788231 57.4281372,22.1100959 63.2772969,27.019319 C63.7316434,27.4005752 64.2099361,27.8019306 64.7146955,28.2233851 C65.3675429,28.7692033 65.9580043,29.3300959 66.5289307,29.8740298 C66.8931641,30.2213686 67.2372323,30.5492364 67.5806704,30.8563769 C68.0967727,31.3180298 68.5662431,31.7325752 68.994753,32.1100628 C72.7568176,35.4333355 73.7688571,36.3264926 73.8690528,40.7470545 C73.8885878,41.5811702 73.8810259,43.2305587 73.8747242,44.5571041 L73.8747242,44.5571041 Z M38.8616865,50.731319 C38.8616865,48.3859967 36.948516,46.4784595 34.5954926,46.4784595 C32.2538122,46.4784595 30.3475734,48.3671537 30.3286686,50.6961455 C30.3299289,50.7149884 30.3286686,50.7344595 30.3286686,50.7539306 C30.341902,53.0879471 32.2506614,54.9829223 34.5954926,54.9829223 C36.9478858,54.9829223 38.8616865,53.0753851 38.8616865,50.731319 L38.8616865,50.731319 Z M52.4700259,50.7300628 C52.4700259,51.5943273 51.7673957,52.295914 50.8996632,52.295914 L41.8347889,52.295914 C41.1132539,55.6173025 38.1407817,58.1133686 34.5954926,58.1133686 C30.9594603,58.1133686 27.9264926,55.487914 27.3051533,52.0396496 C26.0467206,51.6420628 25.0094747,50.8048066 24.4511515,49.6886744 C24.1732503,49.1321785 24.0314639,48.5373686 24.0314639,47.9224595 L24.0314639,37.4878479 C24.0314639,36.6235835 24.7340941,35.9219967 25.6011964,35.9219967 C26.4682987,35.9219967 27.1715591,36.6235835 27.1715591,37.4878479 L27.1715591,47.9224595 C27.1715591,48.0480793 27.2018068,48.172443 27.2623023,48.2924099 C27.3158661,48.3998149 27.3958966,48.5091041 27.4992431,48.6121124 C28.4161282,45.5708562 31.2499648,43.3486413 34.5948625,43.3486413 C38.1407817,43.3486413 41.1119935,45.8440793 41.8347889,49.1654678 L50.8996632,49.1654678 C51.7667655,49.1654678 52.4700259,49.8657983 52.4700259,50.7300628 L52.4700259,50.7300628 Z M23.9955447,25.6243107 C24.8639074,25.6243107 25.5665375,24.9239802 25.5665375,24.0597157 C25.5665375,23.1954512 24.8639074,22.4951207 23.9955447,22.4951207 L23.9905034,22.4951207 C23.1234011,22.4951207 22.4232916,23.1954512 22.4232916,24.0597157 C22.4232916,24.9239802 23.1290725,25.6243107 23.9955447,25.6243107 L23.9955447,25.6243107 Z M33.4996417,39.3715174 L35.2653544,39.3715174 C36.1324567,39.3715174 36.8350869,38.6718149 36.8350869,37.8069223 C36.8350869,36.9426579 36.1324567,36.2423273 35.2653544,36.2423273 L33.4996417,36.2423273 C32.6325393,36.2423273 31.929279,36.9426579 31.929279,37.8069223 C31.929279,38.6718149 32.6325393,39.3715174 33.4996417,39.3715174 L33.4996417,39.3715174 Z M3.79067397,16.1481785 L16.8117027,29.1265917 L29.1824047,29.1265917 L29.1824047,16.7963769 L16.1607458,3.81796364 L3.79067397,16.1481785 Z M15.0510312,31.7985256 L0.459639856,17.2548893 C-0.153507361,16.6431207 -0.153507361,15.6526083 0.459639856,15.0414678 L15.0510312,0.498459504 C15.6641785,-0.113309091 16.6579433,-0.113309091 17.2717206,0.498459504 L31.8624819,15.0414678 C32.1567673,15.3347901 32.3224998,15.733005 32.3224998,16.1475504 L32.3224998,30.6911868 C32.3224998,31.5554512 31.6192395,32.2564099 30.7521372,32.2564099 L16.1607458,32.2564099 C15.744209,32.2564099 15.3453167,32.0912198 15.0510312,31.7985256 L15.0510312,31.7985256 Z M19.827656,47.108443 C19.827656,47.9727074 19.1250259,48.673038 18.2579235,48.673038 L14.6830169,48.673038 C13.8152844,48.673038 13.1120241,47.9727074 13.1120241,47.108443 C13.1120241,46.2441785 13.8152844,45.5432198 14.6830169,45.5432198 L18.2579235,45.5432198 C19.1250259,45.5432198 19.827656,46.2441785 19.827656,47.108443 L19.827656,47.108443 Z" id="Fill-7" fill="#231F20"></path>
            </g>
        </g>
    </g>
</svg>