<?xml version="1.0" encoding="UTF-8"?>
<svg width="32px" height="30px" viewBox="0 0 32 30" version="1.1" xmlns="http://www.w3.org/2000/svg" xmlns:xlink="http://www.w3.org/1999/xlink">
    <!-- Generator: Sketch 46.2 (44496) - http://www.bohemiancoding.com/sketch -->
    <title>Group 4</title>
    <desc>Created with Sketch.</desc>
    <defs>
        <polygon id="path-1" points="4.45054686e-21 9.16435171e-15 4.45054686e-21 30 32 30 32 0 0 0"></polygon>
    </defs>
    <g id="MAH" stroke="none" stroke-width="1" fill="none" fill-rule="evenodd">
        <g id="L&amp;F-Panel-de-control---concesionaria---DASHBOARD" transform="translate(-1324.000000, -502.000000)">
            <g id="Group-4" transform="translate(1324.000000, 502.000000)">
                <g id="star">
                    <mask id="mask-2" fill="white">
                        <use xlink:href="#path-1"></use>
                    </mask>
                    <g id="Clip-2"></g>
                    <path d="M31.9560283,11.3371399 C31.8511891,11.0209856 31.5750936,10.7955181 31.240216,10.7438467 L21.2570194,9.35081685 L16.7647,0.483662941 C16.6136397,0.187016337 16.3048692,0 15.9699916,0 C15.6348676,0 15.3264255,0.187016337 15.1753652,0.489950559 L10.7420742,9.38289983 L0.758795596,10.8404987 C0.424000031,10.89217 0.148232914,11.11796 0.0429833024,11.4337919 C-0.0621842109,11.7499463 0.0298476254,12.0978611 0.272939746,12.3236511 L7.51710137,19.2173796 L5.84246676,28.9810834 C5.78310992,29.3101354 5.92136292,29.638865 6.19713003,29.832169 C6.34819032,29.9420411 6.5319256,30 6.71607137,30 C6.86031752,30 6.99824213,29.967917 7.1297631,29.896738 L16.0421557,25.2600226 L24.9809017,29.8450666 C25.1124227,29.9096356 25.2502652,29.9420411 25.3881898,29.9420411 C25.8743741,29.9420411 26.2749301,29.5485006 26.2749301,29.0714478 C26.2749301,29.0005911 26.2685265,28.9360221 26.2486587,28.8714531 L24.5213993,19.1661113 L31.7196682,12.2336092 C31.975896,12.0012092 32.0611958,11.6529718 31.9560283,11.3371399 Z M22.9583359,18.2437661 C22.7479188,18.4437607 22.6562153,18.7337167 22.7085117,19.017788 L24.2125467,27.4850333 L16.4494438,23.5061801 C16.193216,23.3707545 15.8846918,23.3770421 15.6217319,23.5061801 L7.88498242,27.5300946 L9.33647472,19.049871 C9.38228539,18.7662027 9.29058195,18.4824538 9.08024692,18.2825398 L2.80163965,12.2978558 L11.4646186,11.0338833 C11.7535214,10.988822 12.0030171,10.8147034 12.1278061,10.5568304 L15.9764773,2.83740864 L19.8780196,10.5373227 C20.0092122,10.7955181 20.258708,10.9693143 20.5476108,11.014698 L29.2173217,12.2269991 L22.9583359,18.2437661 Z" id="Fill-1" fill="#FFFFFF" mask="url(#mask-2)"></path>
                </g>
                <polygon id="Path-5" fill="#FFFFFF" points="8.34144679 18.886918 1.45017701 12.1790859 11.5972877 10.4950181 16.2515784 1.1479914 20.4571397 10.0174547 30.9383043 11.6417709 24.0944306 18.886918 25.2351763 29.1398133 16.2515784 24.519763 7.2589698 29.1398133"></polygon>
            </g>
        </g>
    </g>
</svg>