<?xml version="1.0" encoding="UTF-8"?>
<svg width="72px" height="55px" viewBox="0 0 72 55" version="1.1" xmlns="http://www.w3.org/2000/svg" xmlns:xlink="http://www.w3.org/1999/xlink">
    <!-- Generator: Sketch 46.2 (44496) - http://www.bohemiancoding.com/sketch -->
    <title>Group 4@2x</title>
    <desc>Created with Sketch.</desc>
    <defs></defs>
    <g id="MAH" stroke="none" stroke-width="1" fill="none" fill-rule="evenodd">
        <g id="L&amp;F-Home" transform="translate(-546.000000, -525.000000)">
            <g id="Group-4" transform="translate(546.000000, 525.000000)">
                <g id="Group-3">
                    <path d="M63.6405254,23.3011804 C61.2236287,22.2058703 56.6917525,22.1929825 56.4999545,22.1929825 C55.9256013,22.1929825 55.4594595,22.6152953 55.4594595,23.1359959 C55.4594595,23.6571679 55.9256013,24.0790093 56.4999545,24.0790093 C57.6698178,24.079638 61.0649532,24.2423078 62.7098025,24.9882314 C62.8594604,25.055814 63.0179625,25.0877193 63.174557,25.0877193 C63.5565921,25.0877193 63.9237134,24.8967591 64.1059735,24.56639 C64.3633226,24.1005414 64.1547033,23.5337904 63.6405254,23.3011804" id="Fill-1" fill="#231F20"></path>
                    <path d="M67.1351351,43.4210526 C66.5978919,43.4210526 66.1621622,43.8826695 66.1621622,44.4529831 L66.1621622,51.0733327 C66.1621622,51.6429583 66.5978919,52.1052632 67.1351351,52.1052632 C67.6728649,52.1052632 68.1081081,51.6429583 68.1081081,51.0733327 L68.1081081,44.4529831 C68.1081081,43.8833575 67.6728649,43.4210526 67.1351351,43.4210526" id="Fill-5" fill="#231F20"></path>
                    <path d="M5.83783784,45.3508772 C5.30075676,45.3508772 4.86486486,45.8383775 4.86486486,46.4390474 L4.86486486,51.9820052 C4.86486486,52.5826752 5.30075676,53.0701754 5.83783784,53.0701754 C6.37572973,53.0701754 6.81081081,52.5826752 6.81081081,51.9820052 L6.81081081,46.4390474 C6.81081081,45.8383775 6.37572973,45.3508772 5.83783784,45.3508772" id="Fill-7" fill="#231F20"></path>
                    <path d="M44.4548678,12.6415139 C40.5509539,8.83028735 32.3841277,9.5591141 29.0533726,10.0491409 C28.0045882,10.2033029 27.2432432,11.070506 27.2432432,12.109504 L27.2432432,14.4310019 C27.2432432,14.987362 27.7054515,15.4385965 28.2753421,15.4385965 C28.8450607,15.4385965 29.307441,14.987362 29.307441,14.4310019 L29.307441,12.109504 C29.307441,12.0754137 29.3303192,12.0458576 29.3611101,12.0413234 C30.6916575,11.84585 33.3315944,11.5440755 36.0664844,11.7219159 C39.2850847,11.9311597 41.6159079,12.7196025 42.994792,14.0664206 C43.3979986,14.4598863 44.0518332,14.4598863 44.4548678,14.0664206 C44.8573864,13.672787 44.8573864,13.0344758 44.4548678,12.6415139" id="Fill-9" fill="#231F20"></path>
                    <path d="M24.3243243,46.3157895 C23.7864324,46.3157895 23.3513514,46.7978229 23.3513514,47.391757 L23.3513514,51.9942079 C23.3513514,52.588142 23.7864324,53.0701754 24.3243243,53.0701754 C24.8614054,53.0701754 25.2972973,52.588142 25.2972973,51.9942079 L25.2972973,47.391757 C25.2972973,46.7978229 24.8614054,46.3157895 24.3243243,46.3157895" id="Fill-11" fill="#231F20"></path>
                    <path d="M48.6486486,46.3157895 C48.1115676,46.3157895 47.6756757,46.7978229 47.6756757,47.391757 L47.6756757,51.9942079 C47.6756757,52.588142 48.1115676,53.0701754 48.6486486,53.0701754 C49.1858919,53.0701754 49.6216216,52.588142 49.6216216,51.9942079 L49.6216216,47.391757 C49.6216216,46.7978229 49.1858919,46.3157895 48.6486486,46.3157895" id="Fill-13" fill="#231F20"></path>
                    <polygon id="Fill-59" fill="#EE3E3C" points="53.019925 37.6315789 50.5945946 39.7831933 53.019925 42.146633 53.019925 51.6335737 53.019925 55 69.0810811 55 69.0810811 41.534474 61.396015 38.0150527 57.5082067 40.7241211"></polygon>
                    <path d="M63.6455095,33.4813413 C62.527722,34.5706591 61.0506394,35.1456748 59.4912915,35.0973156 C56.4392166,35.0057155 53.9563186,32.3066008 53.9563186,29.0808296 L53.9563186,27.1014553 C53.9563186,26.9366104 53.9185258,26.7745894 53.8450496,26.6277468 L53.1934317,25.3192242 C52.9552492,24.8400444 52.8288631,24.3036807 52.8288631,23.7673171 L52.8288631,23.7046619 C52.8288631,21.1661563 54.8853179,19.1020651 57.4128642,19.1020651 L66.5073901,19.1020651 L66.5073901,23.4999295 C66.5073901,24.2106687 66.3398714,24.9228198 66.0234667,25.5585493 L65.4912037,26.6277468 C65.4177275,26.7745894 65.3794073,26.9366104 65.3794073,27.1014553 L65.3794073,29.3655135 C65.3794073,30.9297752 64.7634728,32.3913177 63.6455095,33.4813413 L63.6455095,33.4813413 Z M59.6677751,40.3232873 L57.2748766,37.9199757 C57.3160092,37.7297157 57.3400911,37.5207475 57.3400911,37.2911295 L57.339388,36.8437185 C58.0040137,37.0629234 58.7037954,37.1926461 59.4281864,37.2147078 C59.5092211,37.2173552 59.5902559,37.2180612 59.6712907,37.2180612 C60.4719704,37.2180612 61.2526111,37.0968101 61.9961621,36.8650742 L61.9961621,37.2911295 C61.9961621,37.5027451 62.0230565,37.7095955 62.0724508,37.9088566 L59.6677751,40.3232873 Z M40.4096269,41.2159913 C40.4034746,41.2249925 40.3902911,41.2451127 40.3560139,41.2484661 C40.3217367,41.2532314 40.3045102,41.2346996 40.2969517,41.2278164 L37.6581364,38.5775904 L42.6336004,35.1629712 L43.689689,36.276292 L40.4096269,41.2159913 Z M36.0130077,37.1409335 L30.3015513,33.220837 L30.3015513,31.2441101 C31.7798644,32.0466259 33.4339578,32.5478674 35.1945742,32.6624116 C35.4719557,32.6802375 35.748634,32.6892386 36.0240819,32.6892386 C38.0406346,32.6892386 39.9817774,32.2052935 41.7244642,31.286998 L41.7244642,33.220837 L36.0130077,37.1409335 Z M31.7290638,41.2271104 C31.7222084,41.2346996 31.7049819,41.251996 31.6707047,41.2484661 C31.6364276,41.2451127 31.6225409,41.2249925 31.6170917,41.2159913 L28.3370296,36.276292 L29.3924151,35.1622652 L34.3685822,38.5775904 L31.7290638,41.2271104 Z M25.7910264,19.9195829 L25.7910264,17.292301 C25.7910264,17.1329274 25.755343,16.9751423 25.6859097,16.8316531 C25.0075732,15.4204112 24.663571,13.9237466 24.663571,12.3813701 L24.663571,10.1173119 C24.663571,5.70638697 28.2375379,2.11792168 32.6299383,2.11792168 L47.3631476,2.11792168 L47.3631476,12.3813701 C47.3631476,13.9237466 47.0191454,15.4211172 46.3401058,16.8316531 C46.2713756,16.9758482 46.2356922,17.1329274 46.2356922,17.292301 L46.2356922,20.3078685 C46.2356922,23.1751815 45.0869673,25.8356441 43.0023877,27.797722 C42.7420569,28.0425185 42.472234,28.2721365 42.1927432,28.4858701 C42.1865909,28.4899294 42.1804386,28.4946948 42.1742863,28.4989306 C40.2213661,29.988006 37.8291708,30.7119823 35.3304525,30.5492553 C29.9814552,30.2010337 25.7910264,25.5322518 25.7910264,19.9195829 L25.7910264,19.9195829 Z M15.6416424,37.0994575 L15.6416424,35.8364702 C16.8687653,34.9884191 17.8438191,33.7951467 18.4260038,32.3844344 C18.5523899,33.2958467 18.7390687,34.1597823 19.0268212,34.9139389 C18.606706,35.4282408 17.6123163,36.3866004 15.6416424,37.0994575 L15.6416424,37.0994575 Z M11.2045937,35.1001395 C8.05496067,35.1001395 5.49313724,32.5279236 5.49313724,29.3655135 C5.49313724,28.7807907 5.02063955,28.3065527 4.43845489,28.3065527 C4.37939268,28.3065527 4.32173671,28.31273 4.26548698,28.3224371 C4.26812369,28.2313665 4.27093618,28.1404724 4.274276,28.0501077 C4.2976548,27.3220721 4.32033047,26.6339241 4.3621662,26.0439064 C4.49681398,24.1409538 5.25425169,22.3878441 6.49420657,21.1068545 C7.74593874,19.8142163 9.41866495,19.1020651 11.2038906,19.1020651 C12.9898194,19.1020651 14.6618425,19.8142163 15.9135746,21.1068545 C17.1544084,22.3878441 17.911143,24.1409538 18.0463181,26.0439064 C18.0874507,26.6339241 18.1101264,27.3213661 18.1342083,28.0494017 C18.1363177,28.1120569 18.1384271,28.1755946 18.1403606,28.2382497 C16.993042,26.4630784 15.2208241,25.1550853 12.9314603,24.4161071 C10.8159433,23.7343128 8.99644045,23.7763182 8.91944864,23.7784362 C8.64347342,23.7860254 8.38120908,23.9018051 8.18960845,24.1017722 L6.28696149,26.0830879 C5.88249081,26.5043779 5.89479544,27.1745236 6.31368011,27.5806351 C6.7332679,27.98657 7.40070605,27.9742155 7.80500095,27.5529256 L9.38843072,25.904653 C10.752135,25.9713676 15.1390862,26.4837281 16.8453865,30.2562761 C16.4163066,33.0360483 14.0364158,35.1001395 11.2045937,35.1001395 L11.2045937,35.1001395 Z M12.8078867,39.9620052 C11.9084184,40.819587 10.4993628,40.819587 9.59989453,39.9612992 L8.61939151,39.0257073 C8.78497664,38.7141963 8.87550354,38.3612094 8.87550354,37.9916321 L8.87550354,36.8629563 C9.61167182,37.0939862 10.3937188,37.2180612 11.2038906,37.2180612 C12.0135351,37.2180612 12.7955821,37.0932803 13.5322777,36.8636623 L13.5322777,37.9916321 C13.5322777,38.3612094 13.6229804,38.7149023 13.7883897,39.0257073 L12.8078867,39.9620052 Z M6.76613884,37.0961042 C4.79353128,36.383247 3.80406346,35.4324767 3.38096005,34.9139389 C3.66941568,34.1576643 3.85627023,33.2924933 3.98248055,32.3782571 C4.56413787,33.7785564 5.53848858,34.9739466 6.76613884,35.8267631 L6.76613884,37.0961042 Z M68.7809337,38.9664055 L64.4249198,37.7164787 C64.2373621,37.6628247 64.1055268,37.4875667 64.1055268,37.2911295 L64.1055268,35.8317049 C64.4599001,35.5847906 64.7984531,35.3091078 65.1143305,35.0016561 C66.6455535,33.5088743 67.488772,31.5076148 67.488772,29.3655135 L67.488772,27.351017 L67.9102934,26.5057898 C68.3724201,25.5770811 68.6167548,24.5373581 68.6167548,23.4999295 L68.6167548,18.0431043 C68.6167548,17.4576754 68.1444329,16.9841434 67.5620725,16.9841434 L57.4128642,16.9841434 C53.7221791,16.9841434 50.7194984,19.9990049 50.7194984,23.7039559 L50.7194984,23.7673171 C50.7194984,24.6305467 50.9227006,25.4943057 51.3073081,26.2664647 L51.8469539,27.351017 L51.8469539,29.0808296 C51.8469539,31.8219497 53.1927286,34.2810333 55.2300233,35.761284 L55.2307264,37.2911295 C55.2307264,37.5269247 55.2307264,37.6248786 54.359383,37.8744404 L52.2341981,38.4845783 L46.0861031,36.2397578 C46.1080756,35.9481906 46.0105175,35.6523876 45.7983506,35.4289468 L43.8338289,33.3565605 L43.8338289,29.8776976 C44.0419529,29.70544 44.2465613,29.5289465 44.4450174,29.3427459 C46.9229935,27.0096787 48.3450569,23.7170164 48.3450569,20.3071625 L48.3450569,17.5288023 C49.0935298,15.8934138 49.4725123,14.1636012 49.4725123,12.3813701 L49.4725123,1.05896084 C49.4725123,0.474414456 49.0001904,0 48.41783,0 L32.6299383,0 C27.0742233,0 22.5542063,4.53852966 22.5542063,10.1166059 L22.5542063,12.3813701 C22.5542063,14.1636012 22.9331888,15.8941197 23.6816617,17.5293318 L23.6816617,19.9195829 C23.6816617,23.8783315 25.4345438,27.4447351 28.1921866,29.7956281 L28.1921866,33.3565605 L26.2276649,35.4289468 C26.0162011,35.6523876 25.9179399,35.9488966 25.9399124,36.2397578 L19.451155,38.6086532 C18.9807667,38.7803814 18.5441282,39.0133528 18.1472161,39.2946834 L17.1282171,38.7830288 C20.1618351,37.4579158 21.122475,35.5930858 21.1685295,35.5007797 C21.3168881,35.2021527 21.3168881,34.8512837 21.1685295,34.5533627 C20.408455,33.0263412 20.3163461,30.2280372 20.2421668,27.9789808 C20.2175575,27.2302955 20.1941787,26.5236156 20.1495305,25.8935339 C19.7904112,20.8145813 15.944512,16.9841434 11.2038906,16.9841434 C6.463445,16.9841434 2.61754581,20.8145813 2.25772335,25.8935339 C2.21377825,26.5236156 2.19039946,27.2310015 2.16561443,27.9796868 C2.0914351,30.2280372 1.99950196,33.0263412 1.23872442,34.5533627 C1.09036577,34.8512837 1.09036577,35.2021527 1.23872442,35.5007797 C1.28530622,35.5930858 2.24401248,37.4538564 5.28378279,38.7810874 L2.45336693,40.2018598 C0.940073535,40.9616642 0,42.4886857 0,44.1874354 L0,52.0112146 C0,52.595761 0.472497693,53.0701754 1.05468235,53.0701754 C1.63686701,53.0701754 2.1093647,52.595761 2.1093647,52.0112146 L2.1093647,44.1874354 C2.1093647,43.2961434 2.6024287,42.4950395 3.39607717,42.0965172 L6.9206498,40.3266407 L8.14706959,41.4966159 C9.003999,42.3150162 10.1038569,42.7237751 11.2038906,42.7237751 C12.3039243,42.7237751 13.403958,42.3143102 14.2608874,41.4966159 L15.4866041,40.3273467 L16.6360321,40.9037744 C16.0948042,41.7731812 15.7871885,42.792784 15.7871885,43.860746 L15.7871885,52.0112146 C15.7871885,52.595761 16.2596862,53.0701754 16.8418709,53.0701754 C17.4249344,53.0701754 17.8965532,52.595761 17.8965532,52.0112146 L17.8965532,43.860746 C17.8965532,42.4067928 18.8113144,41.0961522 20.1722062,40.5996761 L27.0139306,38.1019405 L29.8613972,42.3916143 C30.2259657,42.9396266 30.8090293,43.2912016 31.4625807,43.3559747 C31.5353538,43.3635639 31.6074238,43.3670938 31.6803727,43.3670938 C32.256405,43.3670938 32.8085312,43.1395937 33.2210878,42.725187 L34.9583254,40.9803725 L34.9583254,52.0112146 C34.9583254,52.596467 35.4306473,53.0701754 36.0130077,53.0701754 C36.5953682,53.0701754 37.0676901,52.596467 37.0676901,52.0112146 L37.0676901,40.9803725 L38.8056308,42.725187 C39.2174843,43.1395937 39.7696105,43.3670938 40.346346,43.3670938 C40.4185917,43.3670938 40.4906617,43.3635639 40.5634347,43.3566806 C41.2169862,43.2912016 41.8000498,42.9396266 42.1646183,42.3916143 L45.012788,38.1019405 L51.8538093,40.5996761 C53.2147011,41.0968582 54.1294623,42.4073223 54.1294623,43.860746 L54.1294623,52.0112146 C54.1294623,52.596467 54.601081,53.0701754 55.1841446,53.0701754 C55.7663293,53.0701754 56.238827,52.596467 56.238827,52.0112146 L56.238827,43.860746 C56.238827,42.3887904 55.6557634,41.0079055 54.6786002,39.9861848 L54.938931,39.9117045 C55.2018984,39.8365183 55.5603146,39.7330932 55.9208402,39.5558937 L58.6130927,42.2599502 L58.6130927,52.0112146 C58.6130927,52.596467 59.0855904,53.0701754 59.6677751,53.0701754 C60.2508386,53.0701754 60.7224574,52.596467 60.7224574,52.0112146 L60.7224574,42.2599502 L63.3969561,39.574602 C63.5391624,39.6476703 63.6880484,39.7082076 63.8453718,39.7537429 L68.2013857,41.0029637 C69.1955996,41.2885301 69.8906353,42.2130029 69.8906353,43.251314 L69.8906353,52.0112146 C69.8906353,52.596467 70.3622541,53.0701754 70.9453176,53.0701754 C71.5275023,53.0701754 72,52.596467 72,52.0112146 L72,43.251314 C72,41.2719397 70.6760221,39.5096524 68.7809337,38.9664055 L68.7809337,38.9664055 Z" id="Fill-3" fill="#231F20"></path>
                </g>
            </g>
        </g>
    </g>
</svg>